<svg width="170" height="170" viewBox="0 0 170 170" fill="none" xmlns="http://www.w3.org/2000/svg">
<g filter="url(#filter0_d_168_1433)">
<path d="M4.84855 16.6745V11.8185H9.70454V6.96252H14.5605V11.8185V16.6745H9.70454V21.5305H4.84855V16.6745Z" fill="black"/>
<path d="M4.84855 16.6745V21.5305H4.02327e-06V16.6745H4.84855Z" fill="black"/>
<rect x="14.5605" y="6.96252" width="137.601" height="4.85599" fill="black"/>
<path d="M161.874 16.6745V11.8185H157.018V6.96252H152.162V11.8185V16.6745H157.018V21.5305H161.874V16.6745Z" fill="black"/>
<path d="M161.874 16.6745V21.5305H166.722V16.6745H161.874Z" fill="black"/>
<rect y="21.5305" width="4.85599" height="126.899" fill="black"/>
<rect width="157.01" height="146.323" transform="translate(4.85599 11.8185)" fill="white" fill-opacity="0.03"/>
<rect x="161.866" y="21.5305" width="4.85599" height="126.899" fill="black"/>
<path d="M4.84855 153.285V158.141H9.70454V162.997H14.5605V158.141V153.285H9.70454V148.429H4.84855V153.285Z" fill="black"/>
<path d="M4.84855 153.285V148.429H4.02327e-06V153.285H4.84855Z" fill="black"/>
<rect width="137.601" height="4.85599" transform="matrix(1 0 0 -1 14.5605 162.997)" fill="black"/>
<path d="M161.874 153.285V158.141H157.018V162.997H152.162V158.141V153.285H157.018V148.429H161.874V153.285Z" fill="black"/>
<path d="M161.874 153.285V148.429H166.722V153.285H161.874Z" fill="black"/>
</g>
<path d="M118.625 65.875V61.75H110.375V57.625H102.125V53.5H93.875V49.375H69.125V53.5H60.875V57.625H52.625V61.75H44.375V65.875H40.25V74.125H44.375V115.375H40.25V123.625H77.375V94.75H85.625V123.625H122.75V115.375H118.625V74.125H122.75V65.875H118.625ZM110.375 115.375H93.875V86.5H69.125V115.375H52.625V70H60.875V65.875H69.125V61.75H77.375V57.625H85.625V61.75H93.875V65.875H102.125V70H110.375V115.375Z" fill="black" stroke="white" stroke-width="3"/>
<rect width="38" height="38" transform="translate(99 34)" fill="white"/>
<path d="M130.667 40.3334V43.5H127.5V46.6667H124.333V49.8334H121.167V53H118V56.1667H114.833V59.3334H113.25V60.9167H110.083V59.3334H108.5V56.1667H105.333V54.5834H102.167V59.3334H105.333V62.5H108.5V65.6667H110.083V67.25H113.25V65.6667H114.833V62.5H118V59.3334H121.167V56.1667H124.333V53H127.5V49.8334H130.667V46.6667H133.833V40.3334H130.667Z" fill="#FF0000"/>
<defs>
<filter id="filter0_d_168_1433" x="0" y="0" width="169.722" height="172.959" filterUnits="userSpaceOnUse" color-interpolation-filters="sRGB">
<feFlood flood-opacity="0" result="BackgroundImageFix"/>
<feColorMatrix in="SourceAlpha" type="matrix" values="0 0 0 0 0 0 0 0 0 0 0 0 0 0 0 0 0 0 127 0" result="hardAlpha"/>
<feOffset dx="3" dy="3"/>
<feComposite in2="hardAlpha" operator="out"/>
<feColorMatrix type="matrix" values="0 0 0 0 0.117647 0 0 0 0 0.203922 0 0 0 0 0.270588 0 0 0 1 0"/>
<feBlend mode="normal" in2="BackgroundImageFix" result="effect1_dropShadow_168_1433"/>
<feBlend mode="normal" in="SourceGraphic" in2="effect1_dropShadow_168_1433" result="shape"/>
</filter>
</defs>
</svg>
