<svg width="170" height="170" viewBox="0 0 170 170" fill="none" xmlns="http://www.w3.org/2000/svg">
<g filter="url(#filter0_d_171_1503)">
<path d="M4.84855 16.6745V11.8185H9.70454V6.96252H14.5605V11.8185V16.6745H9.70454V21.5305H4.84855V16.6745Z" fill="black"/>
<path d="M4.84855 16.6745V21.5305H4.02327e-06V16.6745H4.84855Z" fill="black"/>
<rect x="14.5605" y="6.96252" width="137.601" height="4.85599" fill="black"/>
<path d="M161.874 16.6745V11.8185H157.018V6.96252H152.162V11.8185V16.6745H157.018V21.5305H161.874V16.6745Z" fill="black"/>
<path d="M161.874 16.6745V21.5305H166.722V16.6745H161.874Z" fill="black"/>
<rect y="21.5305" width="4.85599" height="126.899" fill="black"/>
<rect width="157.01" height="146.323" transform="translate(4.85599 11.8185)" fill="white" fill-opacity="0.03"/>
<rect x="161.866" y="21.5305" width="4.85599" height="126.899" fill="black"/>
<path d="M4.84855 153.285V158.141H9.70454V162.997H14.5605V158.141V153.285H9.70454V148.429H4.84855V153.285Z" fill="black"/>
<path d="M4.84855 153.285V148.429H4.02327e-06V153.285H4.84855Z" fill="black"/>
<rect width="137.601" height="4.85599" transform="matrix(1 0 0 -1 14.5605 162.997)" fill="black"/>
<path d="M161.874 153.285V158.141H157.018V162.997H152.162V158.141V153.285H157.018V148.429H161.874V153.285Z" fill="black"/>
<path d="M161.874 153.285V148.429H166.722V153.285H161.874Z" fill="black"/>
</g>
<path d="M77.375 61.75H60.875V65.875H56.75V82.375H60.875V86.5H77.375V82.375H81.5V65.875H77.375V61.75ZM73.25 78.25H65V70H73.25V78.25Z" fill="black" stroke="white" stroke-width="3"/>
<path d="M118.625 49.375V45.25H44.375V49.375H40.25V123.625H44.375V127.75H118.625V123.625H122.75V49.375H118.625ZM114.5 94.75H110.375V90.625H106.25V86.5H102.125V82.375H89.75V86.5H85.625V90.625H81.5V94.75H77.375V98.875H73.25V103H69.125V107.125H65V111.25H60.875V115.375H56.75V119.5H52.625V115.375H48.5V57.625H52.625V53.5H110.375V57.625H114.5V94.75ZM114.5 115.375H110.375V119.5H69.125V115.375H73.25V111.25H77.375V107.125H81.5V103H85.625V98.875H89.75V94.75H93.875V90.625H98V94.75H102.125V98.875H106.25V103H110.375V107.125H114.5V115.375Z" fill="black"/>
<rect width="38" height="38" transform="translate(99 34)" fill="white"/>
<path d="M124.333 51.4167H111.667V54.5834H124.333V51.4167Z" fill="#FF0000"/>
<path d="M132.25 40.3334V38.75H130.667V37.1667H105.333V38.75H103.75V40.3334H102.167V65.6667H103.75V67.25H105.333V68.8334H130.667V67.25H132.25V65.6667H133.833V40.3334H132.25ZM130.667 62.5H129.083V64.0834H127.5V65.6667H108.5V64.0834H106.917V62.5H105.333V43.5H106.917V41.9167H108.5V40.3334H127.5V41.9167H129.083V43.5H130.667V62.5Z" fill="#FF0000"/>
<defs>
<filter id="filter0_d_171_1503" x="0" y="0" width="169.722" height="172.959" filterUnits="userSpaceOnUse" color-interpolation-filters="sRGB">
<feFlood flood-opacity="0" result="BackgroundImageFix"/>
<feColorMatrix in="SourceAlpha" type="matrix" values="0 0 0 0 0 0 0 0 0 0 0 0 0 0 0 0 0 0 127 0" result="hardAlpha"/>
<feOffset dx="3" dy="3"/>
<feComposite in2="hardAlpha" operator="out"/>
<feColorMatrix type="matrix" values="0 0 0 0 0.117647 0 0 0 0 0.203922 0 0 0 0 0.270588 0 0 0 1 0"/>
<feBlend mode="normal" in2="BackgroundImageFix" result="effect1_dropShadow_171_1503"/>
<feBlend mode="normal" in="SourceGraphic" in2="effect1_dropShadow_171_1503" result="shape"/>
</filter>
</defs>
</svg>
