<svg width="170" height="170" viewBox="0 0 170 170" fill="none" xmlns="http://www.w3.org/2000/svg">
<g filter="url(#filter0_d_168_1298)">
<path d="M4.84855 16.6745V11.8185H9.70453V6.96252H14.5605V11.8185V16.6745H9.70453V21.5305H4.84855V16.6745Z" fill="black"/>
<path d="M4.84855 16.6745V21.5305H2.08572e-07V16.6745H4.84855Z" fill="black"/>
<rect x="14.5605" y="6.96252" width="137.601" height="4.85599" fill="black"/>
<path d="M161.874 16.6745V11.8185H157.018V6.96252H152.162V11.8185V16.6745H157.018V21.5305H161.874V16.6745Z" fill="black"/>
<path d="M161.874 16.6745V21.5305H166.722V16.6745H161.874Z" fill="black"/>
<rect y="21.5305" width="4.85599" height="126.899" fill="black"/>
<rect width="157.01" height="146.323" transform="translate(4.85599 11.8185)" fill="white" fill-opacity="0.03"/>
<rect x="161.866" y="21.5305" width="4.85599" height="126.899" fill="black"/>
<path d="M4.84855 153.285V158.141H9.70453V162.997H14.5605V158.141V153.285H9.70453V148.429H4.84855V153.285Z" fill="black"/>
<path d="M4.84855 153.285V148.429H2.08572e-07V153.285H4.84855Z" fill="black"/>
<rect width="137.601" height="4.85599" transform="matrix(1 0 0 -1 14.5605 162.997)" fill="black"/>
<path d="M161.874 153.285V158.141H157.018V162.997H152.162V158.141V153.285H157.018V148.429H161.874V153.285Z" fill="black"/>
<path d="M161.874 153.285V148.429H166.722V153.285H161.874Z" fill="black"/>
</g>
<path d="M118.509 53.9797V49.8547H44.2594V53.9797H40.1344V119.98H44.2594V124.105H118.509V119.98H122.634V53.9797H118.509ZM114.384 66.3547H110.259V70.4797H102.009V74.6047H93.7594V78.7297H85.5094V82.8547H77.2594V78.7297H69.0094V74.6047H60.7594V70.4797H52.5094V66.3547H48.3844V62.2297H52.5094V58.1047H110.259V62.2297H114.384V66.3547ZM114.384 111.73H110.259V115.855H52.5094V111.73H48.3844V78.7297H52.5094V82.8547H60.7594V86.9797H69.0094V91.1047H73.1344V95.2297H89.6344V91.1047H93.7594V86.9797H102.009V82.8547H110.259V78.7297H114.384V111.73Z" fill="black" stroke="white" stroke-width="3"/>
<rect width="38" height="38" transform="translate(96.8378 33.4797)" fill="white"/>
<path d="M117.421 58.813H114.254V61.9797H117.421V58.813Z" fill="#FF0000"/>
<path d="M117.421 42.9797H114.254V55.6464H117.421V42.9797Z" fill="#FF0000"/>
<path d="M130.088 41.3964V39.813H128.504V38.2297H126.921V36.6464H104.754V38.2297H103.171V39.813H101.588V41.3964H100.004V63.563H101.588V65.1464H103.171V66.7297H104.754V68.313H126.921V66.7297H128.504V65.1464H130.088V63.563H131.671V41.3964H130.088ZM128.504 60.3964H126.921V61.9797H125.338V63.563H123.754V65.1464H107.921V63.563H106.338V61.9797H104.754V60.3964H103.171V44.563H104.754V42.9797H106.338V41.3964H107.921V39.813H123.754V41.3964H125.338V42.9797H126.921V44.563H128.504V60.3964Z" fill="#FF0000"/>
<defs>
<filter id="filter0_d_168_1298" x="0" y="0" width="169.722" height="172.959" filterUnits="userSpaceOnUse" color-interpolation-filters="sRGB">
<feFlood flood-opacity="0" result="BackgroundImageFix"/>
<feColorMatrix in="SourceAlpha" type="matrix" values="0 0 0 0 0 0 0 0 0 0 0 0 0 0 0 0 0 0 127 0" result="hardAlpha"/>
<feOffset dx="3" dy="3"/>
<feComposite in2="hardAlpha" operator="out"/>
<feColorMatrix type="matrix" values="0 0 0 0 0.117647 0 0 0 0 0.203922 0 0 0 0 0.270588 0 0 0 1 0"/>
<feBlend mode="normal" in2="BackgroundImageFix" result="effect1_dropShadow_168_1298"/>
<feBlend mode="normal" in="SourceGraphic" in2="effect1_dropShadow_168_1298" result="shape"/>
</filter>
</defs>
</svg>
