<svg width="99" height="99" viewBox="0 0 99 99" fill="none" xmlns="http://www.w3.org/2000/svg">
<path d="M24.75 49.5H28.875V53.625H53.625V49.5H57.75V45.375H61.875V20.625H57.75V16.5H53.625V12.375H28.875V16.5H24.75V20.625H20.625V45.375H24.75V49.5ZM28.875 28.875H33V24.75H37.125V20.625H45.375V24.75H49.5V28.875H53.625V37.125H49.5V41.25H45.375V45.375H37.125V41.25H33V37.125H28.875V28.875Z" fill="black" stroke="white" stroke-width="3"/>
<path d="M66 61.875H61.875V57.75H16.5V61.875H12.375V66H8.25V86.625H16.5V74.25H20.625V70.125H24.75V66H53.625V70.125H57.75V74.25H61.875V86.625H70.125V66H66V61.875Z" fill="black"/>
<path d="M74.25 49.5H78.375V45.375H82.5V20.625H78.375V16.5H74.25V12.375H70.125H66V24.75H70.125V28.875H74.25V33V37.125H70.125V41.25H66V53.625H74.25V49.5Z" fill="black"/>
<path d="M86.625 66V61.875H82.5V57.75H74.25V70.125H78.375V74.25H82.5V86.625H90.75V66H86.625Z" fill="black"/>
</svg>
