<svg width="170" height="170" viewBox="0 0 170 170" fill="none" xmlns="http://www.w3.org/2000/svg">
<g filter="url(#filter0_d_168_1456)">
<path d="M4.84855 16.6745V11.8185H9.70454V6.96252H14.5605V11.8185V16.6745H9.70454V21.5305H4.84855V16.6745Z" fill="black"/>
<path d="M4.84855 16.6745V21.5305H4.02327e-06V16.6745H4.84855Z" fill="black"/>
<rect x="14.5605" y="6.96252" width="137.601" height="4.85599" fill="black"/>
<path d="M161.874 16.6745V11.8185H157.018V6.96252H152.162V11.8185V16.6745H157.018V21.5305H161.874V16.6745Z" fill="black"/>
<path d="M161.874 16.6745V21.5305H166.722V16.6745H161.874Z" fill="black"/>
<rect y="21.5305" width="4.85599" height="126.899" fill="black"/>
<rect width="157.01" height="146.323" transform="translate(4.85599 11.8185)" fill="white" fill-opacity="0.03"/>
<rect x="161.866" y="21.5305" width="4.85599" height="126.899" fill="black"/>
<path d="M4.84855 153.285V158.141H9.70454V162.997H14.5605V158.141V153.285H9.70454V148.429H4.84855V153.285Z" fill="black"/>
<path d="M4.84855 153.285V148.429H4.02327e-06V153.285H4.84855Z" fill="black"/>
<rect width="137.601" height="4.85599" transform="matrix(1 0 0 -1 14.5605 162.997)" fill="black"/>
<path d="M161.874 153.285V158.141H157.018V162.997H152.162V158.141V153.285H157.018V148.429H161.874V153.285Z" fill="black"/>
<path d="M161.874 153.285V148.429H166.722V153.285H161.874Z" fill="black"/>
</g>
<path d="M85.625 61.75H77.375V70H85.625V61.75Z" fill="black" stroke="white" stroke-width="3"/>
<path d="M85.625 78.25H77.375V111.25H85.625V78.25Z" fill="black"/>
<path d="M118.625 57.625V53.5H114.5V49.375H110.375V45.25H52.625V49.375H48.5V53.5H44.375V57.625H40.25V115.375H44.375V119.5H48.5V123.625H52.625V127.75H110.375V123.625H114.5V119.5H118.625V115.375H122.75V57.625H118.625ZM114.5 107.125H110.375V111.25H106.25V115.375H102.125V119.5H60.875V115.375H56.75V111.25H52.625V107.125H48.5V65.875H52.625V61.75H56.75V57.625H60.875V53.5H102.125V57.625H106.25V61.75H110.375V65.875H114.5V107.125Z" fill="black"/>
<rect width="38" height="38" transform="translate(99 34)" fill="white"/>
<path d="M108.5 53H110.083V54.5833H119.583V53H121.167V51.4167H122.75V41.9167H121.167V40.3333H119.583V38.75H110.083V40.3333H108.5V41.9167H106.917V51.4167H108.5V53ZM110.083 45.0833H111.667V43.5H113.25V41.9167H116.417V43.5H118V45.0833H119.583V48.25H118V49.8333H116.417V51.4167H113.25V49.8333H111.667V48.25H110.083V45.0833Z" fill="#FF0000"/>
<path d="M125.917 57.75H124.333V56.1666H105.333V57.75H103.75V59.3333H102.167V67.25H105.333V62.5H106.917V60.9166H108.5V59.3333H121.167V60.9166H122.75V62.5H124.333V67.25H127.5V59.3333H125.917V57.75Z" fill="black"/>
<path d="M132.25 41.9166V43.5H130.667V45.0833H129.083V46.6666H127.5V45.0833H124.333V48.25H125.917V49.8333H130.667V48.25H132.25V46.6666H133.833V45.0833H135.417V41.9166H132.25Z" fill="black"/>
<defs>
<filter id="filter0_d_168_1456" x="0" y="0" width="169.722" height="172.959" filterUnits="userSpaceOnUse" color-interpolation-filters="sRGB">
<feFlood flood-opacity="0" result="BackgroundImageFix"/>
<feColorMatrix in="SourceAlpha" type="matrix" values="0 0 0 0 0 0 0 0 0 0 0 0 0 0 0 0 0 0 127 0" result="hardAlpha"/>
<feOffset dx="3" dy="3"/>
<feComposite in2="hardAlpha" operator="out"/>
<feColorMatrix type="matrix" values="0 0 0 0 0.117647 0 0 0 0 0.203922 0 0 0 0 0.270588 0 0 0 1 0"/>
<feBlend mode="normal" in2="BackgroundImageFix" result="effect1_dropShadow_168_1456"/>
<feBlend mode="normal" in="SourceGraphic" in2="effect1_dropShadow_168_1456" result="shape"/>
</filter>
</defs>
</svg>
