<svg width="1280" height="241" viewBox="0 0 1280 241" fill="none" xmlns="http://www.w3.org/2000/svg">
<rect x="1160" y="40.0793" width="39.9995" height="40.0792" transform="rotate(-180 1160 40.0793)" fill="white"/>
<rect x="1080" y="40.0793" width="39.9995" height="40.0792" transform="rotate(-180 1080 40.0793)" fill="white"/>
<rect x="1000" y="40.0793" width="39.9995" height="40.0792" transform="rotate(-180 1000 40.0793)" fill="white"/>
<rect x="400" y="40.0791" width="39.9995" height="40.0792" transform="rotate(-180 400 40.0791)" fill="white"/>
<rect x="920" y="40.0793" width="39.9995" height="40.0792" transform="rotate(-180 920 40.0793)" fill="white"/>
<rect x="640" y="40.0791" width="39.9995" height="40.0792" transform="rotate(-180 640 40.0791)" fill="white"/>
<rect x="320" y="40.0791" width="39.9995" height="40.0792" transform="rotate(-180 320 40.0791)" fill="white"/>
<rect x="1240" y="40.0793" width="39.9995" height="40.0792" transform="rotate(-180 1240 40.0793)" fill="white"/>
<rect x="840" y="40.0793" width="39.9995" height="40.0792" transform="rotate(-180 840 40.0793)" fill="white"/>
<rect x="560" y="40.0791" width="39.9995" height="40.0792" transform="rotate(-180 560 40.0791)" fill="white"/>
<rect x="240" y="40.0791" width="39.9995" height="40.0792" transform="rotate(-180 240 40.0791)" fill="white"/>
<rect x="480" y="40.0791" width="39.9995" height="40.0792" transform="rotate(-180 480 40.0791)" fill="white"/>
<rect x="160" y="40.0791" width="39.9995" height="40.0792" transform="rotate(-180 160 40.0791)" fill="white"/>
<rect x="80.0002" y="40.0791" width="39.9995" height="40.0792" transform="rotate(-180 80.0002 40.0791)" fill="white"/>
<rect x="640" y="80.1584" width="39.9995" height="40.0792" transform="rotate(-180 640 80.1584)" fill="white"/>
<rect x="560" y="80.1584" width="39.9995" height="40.0792" transform="rotate(-180 560 80.1584)" fill="white"/>
<rect x="1080" y="120.238" width="39.9995" height="40.0792" transform="rotate(-180 1080 120.238)" fill="white"/>
<rect x="1000" y="120.238" width="39.9995" height="40.0792" transform="rotate(-180 1000 120.238)" fill="white"/>
<rect x="400" y="120.237" width="39.9995" height="40.0792" transform="rotate(-180 400 120.237)" fill="white"/>
<rect x="920" y="120.238" width="39.9995" height="40.0792" transform="rotate(-180 920 120.238)" fill="white"/>
<rect x="320" y="120.237" width="39.9995" height="40.0792" transform="rotate(-180 320 120.237)" fill="white"/>
<rect x="1240" y="160.317" width="39.9995" height="40.0792" transform="rotate(-180 1240 160.317)" fill="white"/>
<rect x="1240" y="240.475" width="39.9995" height="40.0792" transform="rotate(-180 1240 240.475)" fill="white"/>
<rect x="240" y="120.237" width="39.9995" height="40.0792" transform="rotate(-180 240 120.237)" fill="white"/>
<rect x="80.0001" y="160.317" width="39.9995" height="40.0792" transform="rotate(-180 80.0001 160.317)" fill="white"/>
<rect x="79.9998" y="240.475" width="39.9995" height="40.0792" transform="rotate(-180 79.9998 240.475)" fill="white"/>
<rect x="1120" y="160.317" width="39.9995" height="40.0792" transform="rotate(-180 1120 160.317)" fill="white"/>
<rect x="1280" y="120.238" width="39.9995" height="40.0792" transform="rotate(-180 1280 120.238)" fill="white"/>
<rect x="1280" y="200.396" width="39.9995" height="40.0792" transform="rotate(-180 1280 200.396)" fill="white"/>
<rect x="1200" y="120.238" width="39.9995" height="40.0792" transform="rotate(-180 1200 120.238)" fill="white"/>
<rect x="200" y="160.317" width="39.9995" height="40.0792" transform="rotate(-180 200 160.317)" fill="white"/>
<rect x="120" y="120.237" width="39.9995" height="40.0792" transform="rotate(-180 120 120.237)" fill="white"/>
<rect x="39.9999" y="120.238" width="39.9995" height="40.0792" transform="rotate(-180 39.9999 120.238)" fill="white"/>
<rect x="39.9996" y="200.396" width="39.9995" height="40.0792" transform="rotate(-180 39.9996 200.396)" fill="white"/>
<rect x="1120" y="80.1584" width="39.9995" height="40.0792" transform="rotate(-180 1120 80.1584)" fill="white"/>
<rect x="760" y="80.1584" width="39.9995" height="40.0792" transform="rotate(-180 760 80.1584)" fill="white"/>
<rect x="960" y="80.1584" width="39.9995" height="40.0792" transform="rotate(-180 960 80.1584)" fill="white"/>
<rect x="360" y="80.1582" width="39.9995" height="40.0792" transform="rotate(-180 360 80.1582)" fill="white"/>
<rect x="1280" y="80.1584" width="39.9995" height="40.0792" transform="rotate(-180 1280 80.1584)" fill="white"/>
<rect x="880" y="80.1584" width="39.9995" height="40.0792" transform="rotate(-180 880 80.1584)" fill="white"/>
<rect x="1200" y="80.1584" width="39.9995" height="40.0792" transform="rotate(-180 1200 80.1584)" fill="white"/>
<rect x="200" y="80.1582" width="39.9995" height="40.0792" transform="rotate(-180 200 80.1582)" fill="white"/>
<rect x="439.999" y="80.1584" width="39.9995" height="40.0792" transform="rotate(-180 439.999 80.1584)" fill="white"/>
<rect x="120" y="80.1582" width="39.9995" height="40.0792" transform="rotate(-180 120 80.1582)" fill="white"/>
<rect x="39.9999" y="80.1582" width="39.9995" height="40.0792" transform="rotate(-180 39.9999 80.1582)" fill="white"/>
<rect x="1040" y="40.0793" width="39.9995" height="40.0792" transform="rotate(-180 1040 40.0793)" fill="white"/>
<rect x="760" y="40.0793" width="39.9995" height="40.0792" transform="rotate(-180 760 40.0793)" fill="white"/>
<rect x="680" y="40.0791" width="39.9995" height="40.0792" transform="rotate(-180 680 40.0791)" fill="white"/>
<rect x="1280" y="40.0793" width="39.9995" height="40.0792" transform="rotate(-180 1280 40.0793)" fill="white"/>
<rect x="880" y="40.0793" width="39.9995" height="40.0792" transform="rotate(-180 880 40.0793)" fill="white"/>
<rect x="600" y="40.0791" width="39.9995" height="40.0792" transform="rotate(-180 600 40.0791)" fill="white"/>
<rect x="280" y="40.0791" width="39.9995" height="40.0792" transform="rotate(-180 280 40.0791)" fill="white"/>
<rect x="1200" y="40.0793" width="39.9995" height="40.0792" transform="rotate(-180 1200 40.0793)" fill="white"/>
<rect x="800" y="40.0793" width="39.9995" height="40.0792" transform="rotate(-180 800 40.0793)" fill="white"/>
<rect x="520" y="40.0791" width="39.9995" height="40.0792" transform="rotate(-180 520 40.0791)" fill="white"/>
<rect x="439.999" y="40.0791" width="39.9995" height="40.0792" transform="rotate(-180 439.999 40.0791)" fill="white"/>
<rect x="120" y="40.0791" width="39.9995" height="40.0792" transform="rotate(-180 120 40.0791)" fill="white"/>
<rect x="39.9999" y="40.0791" width="39.9995" height="40.0792" transform="rotate(-180 39.9999 40.0791)" fill="white"/>
</svg>
