<svg width="170" height="170" viewBox="0 0 170 170" fill="none" xmlns="http://www.w3.org/2000/svg">
<g filter="url(#filter0_d_168_1367)">
<path d="M4.84855 16.6745V11.8185H9.70453V6.96252H14.5605V11.8185V16.6745H9.70453V21.5305H4.84855V16.6745Z" fill="black"/>
<path d="M4.84855 16.6745V21.5305H2.08572e-07V16.6745H4.84855Z" fill="black"/>
<rect x="14.5605" y="6.96252" width="137.601" height="4.85599" fill="black"/>
<path d="M161.874 16.6745V11.8185H157.018V6.96252H152.162V11.8185V16.6745H157.018V21.5305H161.874V16.6745Z" fill="black"/>
<path d="M161.874 16.6745V21.5305H166.722V16.6745H161.874Z" fill="black"/>
<rect y="21.5305" width="4.85599" height="126.899" fill="black"/>
<rect width="157.01" height="146.323" transform="translate(4.85599 11.8185)" fill="white" fill-opacity="0.03"/>
<rect x="161.866" y="21.5305" width="4.85599" height="126.899" fill="black"/>
<path d="M4.84855 153.285V158.141H9.70453V162.997H14.5605V158.141V153.285H9.70453V148.429H4.84855V153.285Z" fill="black"/>
<path d="M4.84855 153.285V148.429H2.08572e-07V153.285H4.84855Z" fill="black"/>
<rect width="137.601" height="4.85599" transform="matrix(1 0 0 -1 14.5605 162.997)" fill="black"/>
<path d="M161.874 153.285V158.141H157.018V162.997H152.162V158.141V153.285H157.018V148.429H161.874V153.285Z" fill="black"/>
<path d="M161.874 153.285V148.429H166.722V153.285H161.874Z" fill="black"/>
</g>
<path d="M139.124 122.537C139.124 122.752 139.105 122.938 139.068 123.097H138.508C138.545 123.246 138.564 123.433 138.564 123.657C138.564 123.872 138.545 124.058 138.508 124.217C138.545 124.366 138.564 124.553 138.564 124.777C138.564 124.992 138.545 125.178 138.508 125.337H137.388C137.351 125.178 137.332 124.992 137.332 124.777C137.332 124.553 137.351 124.366 137.388 124.217C137.351 124.058 137.332 123.872 137.332 123.657C137.332 123.433 137.351 123.246 137.388 123.097H134.588C134.551 122.938 134.532 122.752 134.532 122.537C134.532 122.313 134.551 122.126 134.588 121.977H135.008C134.971 121.818 134.952 121.632 134.952 121.417C134.952 121.193 134.971 121.006 135.008 120.857H135.428C135.391 120.698 135.372 120.512 135.372 120.297C135.372 120.073 135.391 119.886 135.428 119.737H135.848C135.811 119.578 135.792 119.392 135.792 119.177C135.792 118.953 135.811 118.766 135.848 118.617H136.548C136.585 118.766 136.604 118.953 136.604 119.177C136.604 119.392 136.585 119.578 136.548 119.737H136.128C136.165 119.886 136.184 120.073 136.184 120.297C136.184 120.512 136.165 120.698 136.128 120.857H135.708C135.745 121.006 135.764 121.193 135.764 121.417C135.764 121.632 135.745 121.818 135.708 121.977H137.388C137.351 121.818 137.332 121.632 137.332 121.417C137.332 121.193 137.351 121.006 137.388 120.857C137.351 120.698 137.332 120.512 137.332 120.297C137.332 120.073 137.351 119.886 137.388 119.737C137.351 119.578 137.332 119.392 137.332 119.177C137.332 118.953 137.351 118.766 137.388 118.617H136.548C136.511 118.458 136.492 118.272 136.492 118.057C136.492 117.833 136.511 117.646 136.548 117.497H138.508C138.545 117.646 138.564 117.833 138.564 118.057C138.564 118.272 138.545 118.458 138.508 118.617C138.545 118.766 138.564 118.953 138.564 119.177C138.564 119.392 138.545 119.578 138.508 119.737C138.545 119.886 138.564 120.073 138.564 120.297C138.564 120.512 138.545 120.698 138.508 120.857C138.545 121.006 138.564 121.193 138.564 121.417C138.564 121.632 138.545 121.818 138.508 121.977H139.068C139.105 122.126 139.124 122.313 139.124 122.537ZM145.233 124.217C145.271 124.366 145.289 124.553 145.289 124.777C145.289 124.992 145.271 125.178 145.233 125.337H144.113C144.076 125.178 144.057 124.992 144.057 124.777C144.057 124.553 144.076 124.366 144.113 124.217H143.693C143.656 124.058 143.637 123.872 143.637 123.657C143.637 123.433 143.656 123.246 143.693 123.097H142.853C142.816 122.938 142.797 122.752 142.797 122.537C142.797 122.313 142.816 122.126 142.853 121.977H141.873C141.911 122.126 141.929 122.313 141.929 122.537C141.929 122.752 141.911 122.938 141.873 123.097C141.911 123.246 141.929 123.433 141.929 123.657C141.929 123.872 141.911 124.058 141.873 124.217C141.911 124.366 141.929 124.553 141.929 124.777C141.929 124.992 141.911 125.178 141.873 125.337H140.753C140.716 125.178 140.697 124.992 140.697 124.777C140.697 124.553 140.716 124.366 140.753 124.217C140.716 124.058 140.697 123.872 140.697 123.657C140.697 123.433 140.716 123.246 140.753 123.097C140.716 122.938 140.697 122.752 140.697 122.537C140.697 122.313 140.716 122.126 140.753 121.977C140.716 121.818 140.697 121.632 140.697 121.417C140.697 121.193 140.716 121.006 140.753 120.857C140.716 120.698 140.697 120.512 140.697 120.297C140.697 120.073 140.716 119.886 140.753 119.737C140.716 119.578 140.697 119.392 140.697 119.177C140.697 118.953 140.716 118.766 140.753 118.617C140.716 118.458 140.697 118.272 140.697 118.057C140.697 117.833 140.716 117.646 140.753 117.497H141.873C141.911 117.646 141.929 117.833 141.929 118.057C141.929 118.272 141.911 118.458 141.873 118.617C141.911 118.766 141.929 118.953 141.929 119.177C141.929 119.392 141.911 119.578 141.873 119.737C141.911 119.886 141.929 120.073 141.929 120.297C141.929 120.512 141.911 120.698 141.873 120.857H142.853C142.816 120.698 142.797 120.512 142.797 120.297C142.797 120.073 142.816 119.886 142.853 119.737H143.693C143.656 119.578 143.637 119.392 143.637 119.177C143.637 118.953 143.656 118.766 143.693 118.617H144.113C144.076 118.458 144.057 118.272 144.057 118.057C144.057 117.833 144.076 117.646 144.113 117.497H145.233C145.271 117.646 145.289 117.833 145.289 118.057C145.289 118.272 145.271 118.458 145.233 118.617H144.813C144.851 118.766 144.869 118.953 144.869 119.177C144.869 119.392 144.851 119.578 144.813 119.737H143.973C144.011 119.886 144.029 120.073 144.029 120.297C144.029 120.512 144.011 120.698 143.973 120.857H143.273C143.311 121.006 143.329 121.193 143.329 121.417C143.329 121.632 143.311 121.818 143.273 121.977H143.973C144.011 122.126 144.029 122.313 144.029 122.537C144.029 122.752 144.011 122.938 143.973 123.097H144.813C144.851 123.246 144.869 123.433 144.869 123.657C144.869 123.872 144.851 124.058 144.813 124.217H145.233Z" fill="black"/>
<path d="M20.6893 118.404C20.6893 118.619 20.6706 118.806 20.6333 118.964C20.6706 119.114 20.6893 119.3 20.6893 119.524C20.6893 119.739 20.6706 119.926 20.6333 120.084H20.2133C20.2506 120.234 20.2693 120.42 20.2693 120.644C20.2693 120.859 20.2506 121.046 20.2133 121.204H19.7933C19.8306 121.354 19.8493 121.54 19.8493 121.764C19.8493 121.979 19.8306 122.166 19.7933 122.324H19.3733C19.4106 122.474 19.4293 122.66 19.4293 122.884C19.4293 123.099 19.4106 123.286 19.3733 123.444H18.9533C18.9906 123.594 19.0093 123.78 19.0093 124.004C19.0093 124.219 18.9906 124.406 18.9533 124.564H18.5333C18.5706 124.714 18.5893 124.9 18.5893 125.124C18.5893 125.339 18.5706 125.526 18.5333 125.684H17.4133C17.376 125.526 17.3573 125.339 17.3573 125.124C17.3573 124.9 17.376 124.714 17.4133 124.564H17.8333C17.796 124.406 17.7773 124.219 17.7773 124.004C17.7773 123.78 17.796 123.594 17.8333 123.444H18.2533C18.216 123.286 18.1973 123.099 18.1973 122.884C18.1973 122.66 18.216 122.474 18.2533 122.324H18.6733C18.636 122.166 18.6173 121.979 18.6173 121.764C18.6173 121.54 18.636 121.354 18.6733 121.204H19.0933C19.056 121.046 19.0373 120.859 19.0373 120.644C19.0373 120.42 19.056 120.234 19.0933 120.084H19.5133C19.476 119.926 19.4573 119.739 19.4573 119.524C19.4573 119.3 19.476 119.114 19.5133 118.964H16.7133C16.676 118.806 16.6573 118.619 16.6573 118.404C16.6573 118.18 16.676 117.994 16.7133 117.844H20.6333C20.6706 117.994 20.6893 118.18 20.6893 118.404ZM26.8548 120.644C26.8548 120.859 26.8361 121.046 26.7988 121.204H26.0988C26.1361 121.354 26.1548 121.54 26.1548 121.764C26.1548 121.979 26.1361 122.166 26.0988 122.324H25.3988C25.4361 122.474 25.4548 122.66 25.4548 122.884C25.4548 123.099 25.4361 123.286 25.3988 123.444H24.6988C24.7361 123.594 24.7548 123.78 24.7548 124.004C24.7548 124.219 24.7361 124.406 24.6988 124.564H26.7988C26.8361 124.714 26.8548 124.9 26.8548 125.124C26.8548 125.339 26.8361 125.526 26.7988 125.684H22.8788C22.8414 125.526 22.8228 125.339 22.8228 125.124C22.8228 124.9 22.8414 124.714 22.8788 124.564H23.5788C23.5414 124.406 23.5228 124.219 23.5228 124.004C23.5228 123.78 23.5414 123.594 23.5788 123.444H24.2788C24.2414 123.286 24.2228 123.099 24.2228 122.884C24.2228 122.66 24.2414 122.474 24.2788 122.324H24.9788C24.9414 122.166 24.9228 121.979 24.9228 121.764C24.9228 121.54 24.9414 121.354 24.9788 121.204H25.6788C25.6414 121.046 25.6228 120.859 25.6228 120.644C25.6228 120.42 25.6414 120.234 25.6788 120.084C25.6414 119.926 25.6228 119.739 25.6228 119.524C25.6228 119.3 25.6414 119.114 25.6788 118.964H23.7188C23.7561 119.114 23.7748 119.3 23.7748 119.524C23.7748 119.739 23.7561 119.926 23.7188 120.084H22.8788C22.8414 119.926 22.8228 119.739 22.8228 119.524C22.8228 119.3 22.8414 119.114 22.8788 118.964H23.4388C23.4014 118.806 23.3828 118.619 23.3828 118.404C23.3828 118.18 23.4014 117.994 23.4388 117.844H26.2388C26.2761 117.994 26.2948 118.18 26.2948 118.404C26.2948 118.619 26.2761 118.806 26.2388 118.964H26.7988C26.8361 119.114 26.8548 119.3 26.8548 119.524C26.8548 119.739 26.8361 119.926 26.7988 120.084C26.8361 120.234 26.8548 120.42 26.8548 120.644ZM31.7602 118.404C31.7602 118.619 31.7416 118.806 31.7042 118.964H30.3042C30.2669 118.806 30.2482 118.619 30.2482 118.404C30.2482 118.18 30.2669 117.994 30.3042 117.844H31.7042C31.7416 117.994 31.7602 118.18 31.7602 118.404ZM30.3042 123.444C30.3416 123.594 30.3602 123.78 30.3602 124.004C30.3602 124.219 30.3416 124.406 30.3042 124.564H29.6042C29.5669 124.406 29.5482 124.219 29.5482 124.004C29.5482 123.78 29.5669 123.594 29.6042 123.444H29.1842C29.1469 123.286 29.1282 123.099 29.1282 122.884C29.1282 122.66 29.1469 122.474 29.1842 122.324C29.1469 122.166 29.1282 121.979 29.1282 121.764C29.1282 121.54 29.1469 121.354 29.1842 121.204C29.1469 121.046 29.1282 120.859 29.1282 120.644C29.1282 120.42 29.1469 120.234 29.1842 120.084H29.6042C29.5669 119.926 29.5482 119.739 29.5482 119.524C29.5482 119.3 29.5669 119.114 29.6042 118.964H30.3042C30.3416 119.114 30.3602 119.3 30.3602 119.524C30.3602 119.739 30.3416 119.926 30.3042 120.084C30.3416 120.234 30.3602 120.42 30.3602 120.644C30.3602 120.859 30.3416 121.046 30.3042 121.204C30.3416 121.354 30.3602 121.54 30.3602 121.764C30.3602 121.979 30.3416 122.166 30.3042 122.324C30.3416 122.474 30.3602 122.66 30.3602 122.884C30.3602 123.099 30.3416 123.286 30.3042 123.444ZM32.8242 121.204C32.8616 121.354 32.8802 121.54 32.8802 121.764C32.8802 121.979 32.8616 122.166 32.8242 122.324C32.8616 122.474 32.8802 122.66 32.8802 122.884C32.8802 123.099 32.8616 123.286 32.8242 123.444H32.4042C32.4416 123.594 32.4602 123.78 32.4602 124.004C32.4602 124.219 32.4416 124.406 32.4042 124.564H31.7042C31.6669 124.406 31.6482 124.219 31.6482 124.004C31.6482 123.78 31.6669 123.594 31.7042 123.444C31.6669 123.286 31.6482 123.099 31.6482 122.884C31.6482 122.66 31.6669 122.474 31.7042 122.324C31.6669 122.166 31.6482 121.979 31.6482 121.764C31.6482 121.54 31.6669 121.354 31.7042 121.204C31.6669 121.046 31.6482 120.859 31.6482 120.644C31.6482 120.42 31.6669 120.234 31.7042 120.084C31.6669 119.926 31.6482 119.739 31.6482 119.524C31.6482 119.3 31.6669 119.114 31.7042 118.964H32.4042C32.4416 119.114 32.4602 119.3 32.4602 119.524C32.4602 119.739 32.4416 119.926 32.4042 120.084H32.8242C32.8616 120.234 32.8802 120.42 32.8802 120.644C32.8802 120.859 32.8616 121.046 32.8242 121.204ZM30.2482 125.124C30.2482 124.9 30.2669 124.714 30.3042 124.564H31.7042C31.7416 124.714 31.7602 124.9 31.7602 125.124C31.7602 125.339 31.7416 125.526 31.7042 125.684H30.3042C30.2669 125.526 30.2482 125.339 30.2482 125.124ZM39.4657 122.884C39.4657 123.099 39.447 123.286 39.4097 123.444H38.8497C38.887 123.594 38.9057 123.78 38.9057 124.004C38.9057 124.219 38.887 124.406 38.8497 124.564H38.2897C38.327 124.714 38.3457 124.9 38.3457 125.124C38.3457 125.339 38.327 125.526 38.2897 125.684H36.0497C36.087 125.834 36.1057 126.02 36.1057 126.244C36.1057 126.459 36.087 126.646 36.0497 126.804C36.087 126.954 36.1057 127.14 36.1057 127.364C36.1057 127.579 36.087 127.766 36.0497 127.924H34.9297C34.8924 127.766 34.8737 127.579 34.8737 127.364C34.8737 127.14 34.8924 126.954 34.9297 126.804C34.8924 126.646 34.8737 126.459 34.8737 126.244C34.8737 126.02 34.8924 125.834 34.9297 125.684C34.8924 125.526 34.8737 125.339 34.8737 125.124C34.8737 124.9 34.8924 124.714 34.9297 124.564C34.8924 124.406 34.8737 124.219 34.8737 124.004C34.8737 123.78 34.8924 123.594 34.9297 123.444C34.8924 123.286 34.8737 123.099 34.8737 122.884C34.8737 122.66 34.8924 122.474 34.9297 122.324C34.8924 122.166 34.8737 121.979 34.8737 121.764C34.8737 121.54 34.8924 121.354 34.9297 121.204C34.8924 121.046 34.8737 120.859 34.8737 120.644C34.8737 120.42 34.8924 120.234 34.9297 120.084H36.0497C36.087 120.234 36.1057 120.42 36.1057 120.644C36.1057 120.859 36.087 121.046 36.0497 121.204H36.6097C36.647 121.354 36.6657 121.54 36.6657 121.764C36.6657 121.979 36.647 122.166 36.6097 122.324H36.0497C36.087 122.474 36.1057 122.66 36.1057 122.884C36.1057 123.099 36.087 123.286 36.0497 123.444C36.087 123.594 36.1057 123.78 36.1057 124.004C36.1057 124.219 36.087 124.406 36.0497 124.564H37.7297C37.6924 124.406 37.6737 124.219 37.6737 124.004C37.6737 123.78 37.6924 123.594 37.7297 123.444H38.2897C38.2524 123.286 38.2337 123.099 38.2337 122.884C38.2337 122.66 38.2524 122.474 38.2897 122.324H37.7297C37.6924 122.166 37.6737 121.979 37.6737 121.764C37.6737 121.54 37.6924 121.354 37.7297 121.204H36.6097C36.5724 121.046 36.5537 120.859 36.5537 120.644C36.5537 120.42 36.5724 120.234 36.6097 120.084H38.2897C38.327 120.234 38.3457 120.42 38.3457 120.644C38.3457 120.859 38.327 121.046 38.2897 121.204H38.8497C38.887 121.354 38.9057 121.54 38.9057 121.764C38.9057 121.979 38.887 122.166 38.8497 122.324H39.4097C39.447 122.474 39.4657 122.66 39.4657 122.884Z" fill="black"/>
<path d="M97.481 73.7287V71.9684H95.7207V70.2081H92.2V66.6874H88.6794V63.1668H85.1587V59.6461H74.5968V91.332H85.1587V89.5717V87.8113H88.6794V84.2907H92.2V80.77H95.7207V79.0097H97.481V77.2494H99.2413V73.7287H97.481ZM88.6794 77.2494V80.77H85.1587V84.2907H81.6381V87.8113H78.1174V63.1668H81.6381V66.6874H85.1587V70.2081H88.6794V73.7287H92.2V77.2494H88.6794Z" fill="black"/>
<path d="M122.116 48.3927V45.0057H117.862V41.6187H49.7961V45.0057H45.542V48.3927H41.2879V102.586H45.542V105.973H49.7961V109.36H117.862V105.973H122.116V102.586H126.37V48.3927H122.116ZM117.862 95.8114H113.608V99.1985H109.354V102.586H58.3044V99.1985H54.0502V95.8114H49.7961V55.1668H54.0502V51.7798H58.3044V48.3927H109.354V51.7798H113.608V55.1668H117.862V95.8114Z" fill="black" stroke="white" stroke-width="3"/>
<line x1="43.9116" y1="123.837" x2="128.182" y2="123.837" stroke="black" stroke-width="3"/>
<path d="M115.514 117.007H115.056V117.676H114.598V128.389H115.056V129.058H115.514V129.728H122.84V129.058H123.298V128.389H123.756V117.676H123.298V117.007H122.84V116.337H115.514V117.007ZM121.925 117.676V118.346H122.383V119.015H122.84V127.05H122.383V127.719H121.925V128.389H116.429V127.719H115.971V127.05H115.514V119.015H115.971V118.346H116.429V117.676H121.925Z" fill="black"/>
<rect x="115.49" y="117.618" width="7.36346" height="11.0109" fill="black"/>
<defs>
<filter id="filter0_d_168_1367" x="0" y="0" width="169.722" height="172.959" filterUnits="userSpaceOnUse" color-interpolation-filters="sRGB">
<feFlood flood-opacity="0" result="BackgroundImageFix"/>
<feColorMatrix in="SourceAlpha" type="matrix" values="0 0 0 0 0 0 0 0 0 0 0 0 0 0 0 0 0 0 127 0" result="hardAlpha"/>
<feOffset dx="3" dy="3"/>
<feComposite in2="hardAlpha" operator="out"/>
<feColorMatrix type="matrix" values="0 0 0 0 0.117647 0 0 0 0 0.203922 0 0 0 0 0.270588 0 0 0 1 0"/>
<feBlend mode="normal" in2="BackgroundImageFix" result="effect1_dropShadow_168_1367"/>
<feBlend mode="normal" in="SourceGraphic" in2="effect1_dropShadow_168_1367" result="shape"/>
</filter>
</defs>
</svg>
