<svg width="85" height="69" viewBox="0 0 85 69" fill="none" xmlns="http://www.w3.org/2000/svg">
<path d="M55.6986 33.1738V31.4772H54.002V29.7806H50.6089V26.3875H47.2158V22.9944H43.8227V19.6013H33.6434V50.1393H43.8227V48.4427V46.7462H47.2158V43.3531H50.6089V39.96H54.002V38.2634H55.6986V36.5669H57.3951V33.1738H55.6986ZM47.2158 36.5669V39.96H43.8227V43.3531H40.4296V46.7462H37.0365V22.9944H40.4296V26.3875H43.8227V29.7806H47.2158V33.1738H50.6089V36.5669H47.2158Z" fill="black"/>
<path d="M79.4411 8.75574V5.4914H75.3411V2.22705H9.74114V5.4914H5.64114V8.75574H1.54114V60.9853H5.64114V64.2496H9.74114V67.514H75.3411V64.2496H79.4411V60.9853H83.5411V8.75574H79.4411ZM75.3411 54.4566H71.2411V57.7209H67.1411V60.9853H17.9411V57.7209H13.8411V54.4566H9.74114V15.2844H13.8411V12.0201H17.9411V8.75574H67.1411V12.0201H71.2411V15.2844H75.3411V54.4566Z" fill="black" stroke="white" stroke-width="2.89132"/>
</svg>
