<svg width="121" height="40" viewBox="0 0 121 40" fill="none" xmlns="http://www.w3.org/2000/svg">
<rect x="32.2175" y="33.5605" width="6.06897" height="6.06897" fill="black"/>
<rect x="26.1485" y="27.4915" width="6.06897" height="6.06897" fill="black"/>
<rect x="20.0796" y="33.5605" width="6.06897" height="6.06897" fill="black"/>
<rect x="14.0106" y="27.4915" width="6.06897" height="6.06897" fill="black"/>
<rect x="20.0796" y="21.4226" width="6.06897" height="6.06897" fill="black"/>
<rect x="7.94162" y="33.5605" width="6.06897" height="6.06897" fill="black"/>
<rect x="7.94162" y="21.4226" width="6.06897" height="6.06897" fill="black"/>
<path d="M111.062 18.6418L111.603 17.6229L108.677 18.5182C108.651 18.5262 108.493 18.4965 108.202 18.429C108.032 18.3388 107.939 18.1966 107.923 18.0025C107.907 17.8083 107.981 17.6576 108.146 17.5502L109.565 16.5401L110.107 15.5211C109.818 15.3678 109.628 15.1414 109.537 14.8422C109.446 14.543 109.477 14.2492 109.629 13.9608C109.781 13.6724 110.008 13.4826 110.308 13.3913C110.608 13.2999 110.902 13.3306 111.189 13.4833L116.284 16.1903C116.573 16.3437 116.763 16.5702 116.855 16.8698C116.946 17.1694 116.915 17.463 116.761 17.7507L116.342 18.5403C116.297 18.6253 116.25 18.6931 116.201 18.7438C116.152 18.7946 116.089 18.8531 116.01 18.9192L114.118 20.266L111.062 18.6418ZM103.528 29.2616C99.9877 29.6467 99.4271 33.1098 99.2402 32.4992C99.0534 31.8886 99.1087 31.3026 99.4061 30.7411L102.073 25.7229C102.163 25.5531 102.268 25.3967 102.387 25.2538C102.507 25.1108 102.65 24.9852 102.816 24.8768L109.352 20.4448C109.72 20.2044 110.112 20.0699 110.531 20.0414C110.949 20.0129 111.353 20.1026 111.743 20.3104L113.577 21.285C113.866 21.4384 114.056 21.6649 114.147 21.9644C114.239 22.264 114.208 22.5576 114.054 22.8453L107.827 34.8249L107.321 33.8134C107.068 32.8019 107.068 32.8019 106.815 32.2961C106.562 31.7904 106.562 31.7904 106.057 31.2846L103.528 29.2616Z" fill="black"/>
<path d="M10.9963 8.0304C11.0826 8.37565 11.1258 8.80723 11.1258 9.32511C11.1258 9.82142 11.0826 10.253 10.9963 10.6198C11.0826 10.9651 11.1258 11.3967 11.1258 11.9145C11.1258 12.4108 11.0826 12.8424 10.9963 13.2093H9.70162C9.78793 13.5545 9.83109 13.9861 9.83109 14.504C9.83109 15.0003 9.78793 15.4318 9.70162 15.7987H8.40691C8.49322 16.1439 8.53638 16.5755 8.53638 17.0934C8.53638 17.5897 8.49322 18.0213 8.40691 18.3881H0.638627C0.552312 18.0213 0.509155 17.5897 0.509155 17.0934C0.509155 16.5755 0.552312 16.1439 0.638627 15.7987C0.552312 15.4318 0.509155 15.0003 0.509155 14.504C0.509155 13.9861 0.552312 13.5545 0.638627 13.2093C0.552312 12.8424 0.509155 12.4108 0.509155 11.9145C0.509155 11.3967 0.552312 10.9651 0.638627 10.6198C0.552312 10.253 0.509155 9.82142 0.509155 9.32511C0.509155 8.80723 0.552312 8.37565 0.638627 8.0304C0.552312 7.66356 0.509155 7.23199 0.509155 6.73569C0.509155 6.2178 0.552312 5.78623 0.638627 5.44097C0.552312 5.07414 0.509155 4.64257 0.509155 4.14626C0.509155 3.62837 0.552312 3.1968 0.638627 2.85155C0.552312 2.48471 0.509155 2.05314 0.509155 1.55683C0.509155 1.03895 0.552312 0.607376 0.638627 0.26212H8.40691C8.49322 0.607376 8.53638 1.03895 8.53638 1.55683C8.53638 2.05314 8.49322 2.48471 8.40691 2.85155H9.70162C9.78793 3.1968 9.83109 3.62837 9.83109 4.14626C9.83109 4.64257 9.78793 5.07414 9.70162 5.44097H10.9963C11.0826 5.78623 11.1258 6.2178 11.1258 6.73569C11.1258 7.23199 11.0826 7.66356 10.9963 8.0304ZM8.40691 13.2093C8.32059 12.8424 8.27744 12.4108 8.27744 11.9145C8.27744 11.3967 8.32059 10.9651 8.40691 10.6198C8.32059 10.253 8.27744 9.82142 8.27744 9.32511C8.27744 8.80723 8.32059 8.37565 8.40691 8.0304C8.32059 7.66356 8.27744 7.23199 8.27744 6.73569C8.27744 6.2178 8.32059 5.78623 8.40691 5.44097H7.11219C7.02588 5.07414 6.98272 4.64257 6.98272 4.14626C6.98272 3.62837 7.02588 3.1968 7.11219 2.85155H3.22805C3.31437 3.1968 3.35752 3.62837 3.35752 4.14626C3.35752 4.64257 3.31437 5.07414 3.22805 5.44097C3.31437 5.78623 3.35752 6.2178 3.35752 6.73569C3.35752 7.23199 3.31437 7.66356 3.22805 8.0304C3.31437 8.37565 3.35752 8.80723 3.35752 9.32511C3.35752 9.82142 3.31437 10.253 3.22805 10.6198C3.31437 10.9651 3.35752 11.3967 3.35752 11.9145C3.35752 12.4108 3.31437 12.8424 3.22805 13.2093C3.31437 13.5545 3.35752 13.9861 3.35752 14.504C3.35752 15.0003 3.31437 15.4318 3.22805 15.7987H7.11219C7.02588 15.4318 6.98272 15.0003 6.98272 14.504C6.98272 13.9861 7.02588 13.5545 7.11219 13.2093H8.40691Z" fill="black"/>
<path d="M17.4825 2.85155C17.3962 2.48471 17.3531 2.05314 17.3531 1.55683C17.3531 1.03895 17.3962 0.607376 17.4825 0.26212H20.072C20.1583 0.607376 20.2014 1.03895 20.2014 1.55683C20.2014 2.05314 20.1583 2.48471 20.072 2.85155H17.4825ZM22.6614 15.7987C22.7477 16.1439 22.7909 16.5755 22.7909 17.0934C22.7909 17.5897 22.7477 18.0213 22.6614 18.3881H14.8931C14.8068 18.0213 14.7636 17.5897 14.7636 17.0934C14.7636 16.5755 14.8068 16.1439 14.8931 15.7987H17.4825C17.3962 15.4318 17.3531 15.0003 17.3531 14.504C17.3531 13.9861 17.3962 13.5545 17.4825 13.2093C17.3962 12.8424 17.3531 12.4108 17.3531 11.9145C17.3531 11.3967 17.3962 10.9651 17.4825 10.6198C17.3962 10.253 17.3531 9.82142 17.3531 9.32511C17.3531 8.80723 17.3962 8.37565 17.4825 8.0304H15.5405C15.4542 7.66356 15.411 7.23199 15.411 6.73569C15.411 6.2178 15.4542 5.78623 15.5405 5.44097H20.072C20.1583 5.78623 20.2014 6.2178 20.2014 6.73569C20.2014 7.23199 20.1583 7.66356 20.072 8.0304C20.1583 8.37565 20.2014 8.80723 20.2014 9.32511C20.2014 9.82142 20.1583 10.253 20.072 10.6198C20.1583 10.9651 20.2014 11.3967 20.2014 11.9145C20.2014 12.4108 20.1583 12.8424 20.072 13.2093C20.1583 13.5545 20.2014 13.9861 20.2014 14.504C20.2014 15.0003 20.1583 15.4318 20.072 15.7987H22.6614Z" fill="black"/>
<path d="M36.9159 8.0304C37.0022 8.37565 37.0454 8.80723 37.0454 9.32511C37.0454 9.82142 37.0022 10.253 36.9159 10.6198C37.0022 10.9651 37.0454 11.3967 37.0454 11.9145C37.0454 12.4108 37.0022 12.8424 36.9159 13.2093C37.0022 13.5545 37.0454 13.9861 37.0454 14.504C37.0454 15.0003 37.0022 15.4318 36.9159 15.7987C37.0022 16.1439 37.0454 16.5755 37.0454 17.0934C37.0454 17.5897 37.0022 18.0213 36.9159 18.3881H35.6212C35.7075 18.7334 35.7506 19.1649 35.7506 19.6828C35.7506 20.1791 35.7075 20.6107 35.6212 20.9775H34.3265C34.4128 21.3228 34.4559 21.7544 34.4559 22.2722C34.4559 22.7685 34.4128 23.2001 34.3265 23.567H29.1476C29.0613 23.2001 29.0181 22.7685 29.0181 22.2722C29.0181 21.7544 29.0613 21.3228 29.1476 20.9775H33.0317C32.9454 20.6107 32.9023 20.1791 32.9023 19.6828C32.9023 19.1649 32.9454 18.7334 33.0317 18.3881H34.3265C34.2401 18.0213 34.197 17.5897 34.197 17.0934C34.197 16.5755 34.2401 16.1439 34.3265 15.7987H33.0317C32.9454 15.4318 32.9023 15.0003 32.9023 14.504C32.9023 13.9861 32.9454 13.5545 33.0317 13.2093H34.3265C34.2401 12.8424 34.197 12.4108 34.197 11.9145C34.197 11.3967 34.2401 10.9651 34.3265 10.6198C34.2401 10.253 34.197 9.82142 34.197 9.32511C34.197 8.80723 34.2401 8.37565 34.3265 8.0304H30.1186C30.205 8.37565 30.2481 8.80723 30.2481 9.32511C30.2481 9.82142 30.205 10.253 30.1186 10.6198H29.1476C29.2339 10.9651 29.2771 11.3967 29.2771 11.9145C29.2771 12.4108 29.2339 12.8424 29.1476 13.2093H30.1186C30.205 13.5545 30.2481 13.9861 30.2481 14.504C30.2481 15.0003 30.205 15.4318 30.1186 15.7987H33.0317C33.1181 16.1439 33.1612 16.5755 33.1612 17.0934C33.1612 17.5897 33.1181 18.0213 33.0317 18.3881H29.1476C29.0613 18.0213 29.0181 17.5897 29.0181 17.0934C29.0181 16.5755 29.0613 16.1439 29.1476 15.7987H27.5292C27.4429 15.4318 27.3997 15.0003 27.3997 14.504C27.3997 13.9861 27.4429 13.5545 27.5292 13.2093H26.5582C26.4719 12.8424 26.4287 12.4108 26.4287 11.9145C26.4287 11.3967 26.4719 10.9651 26.5582 10.6198H27.5292C27.4429 10.253 27.3997 9.82142 27.3997 9.32511C27.3997 8.80723 27.4429 8.37565 27.5292 8.0304H29.1476C29.0613 7.66356 29.0181 7.23199 29.0181 6.73569C29.0181 6.2178 29.0613 5.78623 29.1476 5.44097H36.9159C37.0022 5.78623 37.0454 6.2178 37.0454 6.73569C37.0454 7.23199 37.0022 7.66356 36.9159 8.0304Z" fill="black"/>
<path d="M43.4021 2.85155C43.3158 2.48471 43.2726 2.05314 43.2726 1.55683C43.2726 1.03895 43.3158 0.607376 43.4021 0.26212H45.9915C46.0778 0.607376 46.121 1.03895 46.121 1.55683C46.121 2.05314 46.0778 2.48471 45.9915 2.85155H43.4021ZM48.581 15.7987C48.6673 16.1439 48.7104 16.5755 48.7104 17.0934C48.7104 17.5897 48.6673 18.0213 48.581 18.3881H40.8127C40.7264 18.0213 40.6832 17.5897 40.6832 17.0934C40.6832 16.5755 40.7264 16.1439 40.8127 15.7987H43.4021C43.3158 15.4318 43.2726 15.0003 43.2726 14.504C43.2726 13.9861 43.3158 13.5545 43.4021 13.2093C43.3158 12.8424 43.2726 12.4108 43.2726 11.9145C43.2726 11.3967 43.3158 10.9651 43.4021 10.6198C43.3158 10.253 43.2726 9.82142 43.2726 9.32511C43.2726 8.80723 43.3158 8.37565 43.4021 8.0304H41.46C41.3737 7.66356 41.3306 7.23199 41.3306 6.73569C41.3306 6.2178 41.3737 5.78623 41.46 5.44097H45.9915C46.0778 5.78623 46.121 6.2178 46.121 6.73569C46.121 7.23199 46.0778 7.66356 45.9915 8.0304C46.0778 8.37565 46.121 8.80723 46.121 9.32511C46.121 9.82142 46.0778 10.253 45.9915 10.6198C46.0778 10.9651 46.121 11.3967 46.121 11.9145C46.121 12.4108 46.0778 12.8424 45.9915 13.2093C46.0778 13.5545 46.121 13.9861 46.121 14.504C46.121 15.0003 46.0778 15.4318 45.9915 15.7987H48.581Z" fill="black"/>
<path d="M61.5407 15.7987C61.627 16.1439 61.6702 16.5755 61.6702 17.0934C61.6702 17.5897 61.627 18.0213 61.5407 18.3881H56.3619C56.2756 18.0213 56.2324 17.5897 56.2324 17.0934C56.2324 16.5755 56.2756 16.1439 56.3619 15.7987H55.0672C54.9808 15.4318 54.9377 15.0003 54.9377 14.504C54.9377 13.9861 54.9808 13.5545 55.0672 13.2093C54.9808 12.8424 54.9377 12.4108 54.9377 11.9145C54.9377 11.3967 54.9808 10.9651 55.0672 10.6198C54.9808 10.253 54.9377 9.82142 54.9377 9.32511C54.9377 8.80723 54.9808 8.37565 55.0672 8.0304H52.4777C52.3914 7.66356 52.3483 7.23199 52.3483 6.73569C52.3483 6.2178 52.3914 5.78623 52.4777 5.44097H55.0672C54.9808 5.07414 54.9377 4.64257 54.9377 4.14626C54.9377 3.62837 54.9808 3.1968 55.0672 2.85155C54.9808 2.48471 54.9377 2.05314 54.9377 1.55683C54.9377 1.03895 54.9808 0.607376 55.0672 0.26212H57.6566C57.7429 0.607376 57.7861 1.03895 57.7861 1.55683C57.7861 2.05314 57.7429 2.48471 57.6566 2.85155C57.7429 3.1968 57.7861 3.62837 57.7861 4.14626C57.7861 4.64257 57.7429 5.07414 57.6566 5.44097H61.5407C61.627 5.78623 61.6702 6.2178 61.6702 6.73569C61.6702 7.23199 61.627 7.66356 61.5407 8.0304H57.6566C57.7429 8.37565 57.7861 8.80723 57.7861 9.32511C57.7861 9.82142 57.7429 10.253 57.6566 10.6198C57.7429 10.9651 57.7861 11.3967 57.7861 11.9145C57.7861 12.4108 57.7429 12.8424 57.6566 13.2093C57.7429 13.5545 57.7861 13.9861 57.7861 14.504C57.7861 15.0003 57.7429 15.4318 57.6566 15.7987H61.5407Z" fill="black"/>
<path d="M75.7952 15.7987C75.8815 16.1439 75.9247 16.5755 75.9247 17.0934C75.9247 17.5897 75.8815 18.0213 75.7952 18.3881H73.2058C73.1195 18.0213 73.0763 17.5897 73.0763 17.0934C73.0763 16.5755 73.1195 16.1439 73.2058 15.7987H71.9111C71.8248 15.4318 71.7816 15.0003 71.7816 14.504C71.7816 13.9861 71.8248 13.5545 71.9111 13.2093H68.0269C68.1133 13.5545 68.1564 13.9861 68.1564 14.504C68.1564 15.0003 68.1133 15.4318 68.0269 15.7987H71.9111C71.9974 16.1439 72.0405 16.5755 72.0405 17.0934C72.0405 17.5897 71.9974 18.0213 71.9111 18.3881H66.7322C66.6459 18.0213 66.6028 17.5897 66.6028 17.0934C66.6028 16.5755 66.6459 16.1439 66.7322 15.7987H65.4375C65.3512 15.4318 65.308 15.0003 65.308 14.504C65.308 13.9861 65.3512 13.5545 65.4375 13.2093H66.7322C66.6459 12.8424 66.6028 12.4108 66.6028 11.9145C66.6028 11.3967 66.6459 10.9651 66.7322 10.6198H71.9111C71.8248 10.253 71.7816 9.82142 71.7816 9.32511C71.7816 8.80723 71.8248 8.37565 71.9111 8.0304H67.3796C67.2933 7.66356 67.2501 7.23199 67.2501 6.73569C67.2501 6.2178 67.2933 5.78623 67.3796 5.44097H73.2058C73.2921 5.78623 73.3353 6.2178 73.3353 6.73569C73.3353 7.23199 73.2921 7.66356 73.2058 8.0304H74.5005C74.5868 8.37565 74.63 8.80723 74.63 9.32511C74.63 9.82142 74.5868 10.253 74.5005 10.6198C74.5868 10.9651 74.63 11.3967 74.63 11.9145C74.63 12.4108 74.5868 12.8424 74.5005 13.2093C74.5868 13.5545 74.63 13.9861 74.63 14.504C74.63 15.0003 74.5868 15.4318 74.5005 15.7987H75.7952Z" fill="black"/>
<path d="M87.4603 15.6065C87.5466 15.9517 87.5898 16.5755 87.5898 17.0934C87.5898 17.5897 87.5466 18.0213 87.4603 18.3881H79.692C79.6057 18.0213 79.5625 17.5897 79.5625 17.0934C79.5625 16.5755 79.6057 16.1439 79.692 15.7987H82.2814C82.1951 15.4318 82.152 15.0003 82.152 14.504C82.152 13.9861 82.1951 13.5545 82.2814 13.2093C82.1951 12.8424 82.152 12.4108 82.152 11.9145C82.152 11.3967 82.1951 10.9651 82.2814 10.6198C82.1951 10.253 82.152 9.82142 82.152 9.32511C82.152 8.80723 82.1951 8.37565 82.2814 8.0304C82.1951 7.66356 82.152 7.23199 82.152 6.73569C82.152 6.2178 82.1951 5.78623 82.2814 5.44097C82.1951 5.07414 82.152 4.64257 82.152 4.14626C82.152 3.62837 82.1951 3.1968 82.2814 2.85155H80.3394C80.253 2.48471 80.2099 2.05314 80.2099 1.55683C80.2099 1.03895 80.3825 0.526439 80.4688 0.181183H85.0003C85.0866 0.526439 85.0003 1.03895 85.0003 1.55683C85.0003 2.05314 84.9572 2.48471 84.8709 2.85155C84.9572 3.1968 85.0003 3.62837 85.0003 4.14626C85.0003 4.64257 84.9572 5.07414 84.8709 5.44097C84.9572 5.78623 85.0003 6.2178 85.0003 6.73569C85.0003 7.23199 84.9572 7.66356 84.8709 8.0304C84.9572 8.37565 85.0003 8.80723 85.0003 9.32511C85.0003 9.82142 84.9572 10.253 84.8709 10.6198C84.9572 10.9651 85.0003 11.3967 85.0003 11.9145C85.0003 12.4108 84.9572 12.8424 84.8709 13.2093C84.9572 13.5545 85.0003 13.9861 85.0003 14.504C85.0003 15.0003 84.9572 15.2396 84.8709 15.6065H87.4603Z" fill="black"/>
<path d="M48.045 35.0232C47.9594 35.6884 47.7882 36.3008 47.5314 36.8605C47.2746 37.4137 46.942 37.8878 46.5337 38.2829C46.1189 38.6846 45.6283 38.9974 45.0619 39.2213C44.5022 39.4387 43.8766 39.5473 43.1851 39.5473C42.5925 39.5473 42.0525 39.465 41.5652 39.3004C41.0844 39.1292 40.6564 38.8954 40.281 38.599C39.8991 38.3027 39.5698 37.9537 39.2932 37.552C39.0233 37.1503 38.7994 36.7124 38.6216 36.2382C38.4372 35.7641 38.2989 35.2669 38.2067 34.7467C38.1211 34.2264 38.075 33.6996 38.0684 33.1662V31.161C38.075 30.6276 38.1211 30.1008 38.2067 29.5805C38.2989 29.0603 38.4372 28.5631 38.6216 28.089C38.7994 27.6148 39.0233 27.1769 39.2932 26.7752C39.5698 26.3669 39.8991 26.0146 40.281 25.7183C40.6564 25.422 41.0844 25.1915 41.5652 25.0268C42.0459 24.8556 42.5859 24.77 43.1851 24.77C43.9029 24.77 44.545 24.882 45.1113 25.1059C45.6776 25.3232 46.165 25.6327 46.5732 26.0344C46.9815 26.4427 47.3075 26.93 47.5512 27.4963C47.8014 28.0626 47.966 28.6882 48.045 29.3731H46.2176C46.1584 28.9385 46.0563 28.5335 45.9114 28.1581C45.7665 27.7828 45.5723 27.4535 45.3286 27.1703C45.085 26.8872 44.7853 26.6666 44.4297 26.5085C44.0807 26.3439 43.6659 26.2616 43.1851 26.2616C42.7505 26.2616 42.3653 26.334 42.0294 26.4789C41.7002 26.6172 41.417 26.8081 41.1799 27.0518C40.9363 27.2955 40.7321 27.5786 40.5675 27.9013C40.4094 28.224 40.281 28.5664 40.1823 28.9286C40.0835 29.2908 40.011 29.6629 39.9649 30.0448C39.9254 30.4202 39.9057 30.7856 39.9057 31.1412V33.1662C39.9057 33.5218 39.9254 33.8906 39.9649 34.2725C40.011 34.6479 40.0835 35.0167 40.1823 35.3789C40.281 35.7476 40.4094 36.0934 40.5675 36.416C40.7255 36.7387 40.9264 37.0219 41.17 37.2655C41.4137 37.5158 41.7002 37.7133 42.0294 37.8582C42.3587 37.9965 42.7439 38.0656 43.1851 38.0656C43.6659 38.0656 44.0807 37.9899 44.4297 37.8384C44.7853 37.687 45.085 37.473 45.3286 37.1964C45.5723 36.9264 45.7665 36.607 45.9114 36.2382C46.0563 35.8629 46.1584 35.4579 46.2176 35.0232H48.045Z" fill="black"/>
<path d="M51.1665 24.1773H56.6289V37.7693H60.1158V39.3498H51.1665V37.7693H54.8015V25.7677H51.1665V24.1773Z" fill="black"/>
<path d="M67.7514 39.5473C67.0007 39.5473 66.3092 39.4189 65.6771 39.1621C65.0515 38.9053 64.5148 38.5464 64.067 38.0854C63.6192 37.6244 63.2702 37.0778 63.0199 36.4457C62.7697 35.8135 62.6446 35.1253 62.6446 34.3812V33.9663C62.6446 33.1036 62.7828 32.3332 63.0594 31.6549C63.336 30.97 63.7048 30.3905 64.1657 29.9164C64.6201 29.4488 65.1371 29.0899 65.7166 28.8397C66.3027 28.5895 66.9019 28.4643 67.5143 28.4643C68.2848 28.4643 68.9565 28.5993 69.5294 28.8693C70.1089 29.1327 70.5897 29.4982 70.9716 29.9658C71.3535 30.4399 71.6367 30.9964 71.8211 31.6351C72.0121 32.2739 72.1076 32.9654 72.1076 33.7095V34.5294H64.472V34.5985C64.5181 35.1187 64.6201 35.5764 64.7782 35.9715C64.9428 36.3666 65.1667 36.7157 65.4499 37.0186C65.7396 37.3413 66.0886 37.5948 66.4969 37.7792C66.9052 37.9636 67.3563 38.0558 67.8502 38.0558C68.5021 38.0558 69.0816 37.9241 69.5887 37.6606C70.0958 37.3972 70.5172 37.0482 70.8531 36.6136L71.9693 37.4828C71.6137 38.0228 71.0803 38.5036 70.3691 38.925C69.6644 39.3399 68.7919 39.5473 67.7514 39.5473ZM67.5143 29.9658C67.1456 29.9658 66.7966 30.0349 66.4673 30.1732C66.138 30.3049 65.8417 30.4992 65.5783 30.756C65.3149 31.0194 65.091 31.3421 64.9066 31.724C64.7288 32.0994 64.6037 32.534 64.5312 33.0279H70.2802V32.939C70.2802 32.6098 70.2176 32.2574 70.0925 31.8821C69.9674 31.5001 69.7928 31.1709 69.5689 30.8943C69.345 30.6177 69.0619 30.3938 68.7194 30.2226C68.3836 30.0514 67.9819 29.9658 67.5143 29.9658Z" fill="black"/>
<path d="M82.2028 39.3498C82.1303 39.2115 82.071 39.0403 82.0249 38.8361C81.9854 38.6254 81.9558 38.4081 81.936 38.1842C81.7517 38.3686 81.5442 38.5431 81.3137 38.7077C81.0898 38.8723 80.8429 39.0172 80.5729 39.1423C80.2963 39.2674 80.0033 39.3662 79.6938 39.4387C79.3843 39.5111 79.055 39.5473 78.706 39.5473C78.1397 39.5473 77.626 39.465 77.165 39.3004C76.7107 39.1357 76.3254 38.9118 76.0093 38.6287C75.6866 38.3521 75.4364 38.0228 75.2586 37.6409C75.0874 37.2524 75.0018 36.8342 75.0018 36.3864C75.0018 35.8003 75.117 35.2867 75.3475 34.8454C75.5846 34.4042 75.9171 34.0355 76.3452 33.7391C76.7732 33.4494 77.2869 33.2321 77.8861 33.0872C78.492 32.9423 79.1669 32.8699 79.9111 32.8699H81.9064V32.0303C81.9064 31.7076 81.8471 31.4178 81.7286 31.161C81.6101 30.9042 81.4422 30.6836 81.2248 30.4992C81.0075 30.3214 80.7408 30.1831 80.4247 30.0843C80.1152 29.9855 79.7662 29.9361 79.3777 29.9361C79.0155 29.9361 78.6895 29.9822 78.3998 30.0744C78.1166 30.1666 77.8762 30.2885 77.6787 30.4399C77.4811 30.5914 77.3264 30.7725 77.2144 30.9832C77.1091 31.1873 77.0564 31.4014 77.0564 31.6253H75.2191C75.2257 31.2367 75.3245 30.8548 75.5154 30.4794C75.713 30.1041 75.9962 29.7649 76.3649 29.462C76.7271 29.1657 77.1683 28.9253 77.6886 28.7409C78.2154 28.5565 78.8113 28.4643 79.4765 28.4643C80.0823 28.4643 80.6453 28.5401 81.1656 28.6915C81.6858 28.8364 82.1369 29.057 82.5188 29.3533C82.8942 29.6563 83.1905 30.0316 83.4079 30.4794C83.6252 30.9272 83.7338 31.4507 83.7338 32.05V37.0186C83.7338 37.3742 83.7667 37.7528 83.8326 38.1545C83.8985 38.5496 83.9906 38.8954 84.1092 39.1917V39.3498H82.2028ZM78.9727 37.957C79.3283 37.957 79.6608 37.9109 79.9704 37.8187C80.2799 37.7265 80.563 37.6047 80.8198 37.4532C81.0701 37.3017 81.2874 37.1305 81.4718 36.9396C81.6562 36.742 81.8011 36.5379 81.9064 36.3271V34.1639H80.2074C79.5752 34.1639 79.0221 34.2198 78.5479 34.3318C78.0804 34.4372 77.7083 34.6018 77.4317 34.8257C77.2342 34.9837 77.0827 35.1714 76.9774 35.3887C76.8786 35.606 76.8292 35.853 76.8292 36.1296C76.8292 36.393 76.872 36.6366 76.9576 36.8605C77.0498 37.0844 77.1848 37.2754 77.3626 37.4334C77.5404 37.5981 77.7643 37.7265 78.0343 37.8187C78.3043 37.9109 78.6171 37.957 78.9727 37.957Z" fill="black"/>
<path d="M87.3294 39.3498V28.6619H88.9691L89.0975 30.2424C89.2556 30.0185 89.4268 29.8143 89.6112 29.6299C89.8021 29.439 90.003 29.2743 90.2137 29.136C90.5298 28.9253 90.8722 28.764 91.241 28.652C91.6164 28.5335 92.0115 28.4709 92.4264 28.4643C92.9861 28.4643 93.4932 28.5434 93.9475 28.7014C94.4085 28.8595 94.8003 29.1064 95.123 29.4422C95.4457 29.7781 95.6926 30.2061 95.8639 30.7264C96.0417 31.24 96.1306 31.8524 96.1306 32.5637V39.3498H94.3032V32.6032C94.3032 32.129 94.2505 31.7273 94.1451 31.3981C94.0397 31.0688 93.885 30.8021 93.6808 30.598C93.4701 30.3938 93.2133 30.2456 92.9104 30.1535C92.614 30.0613 92.2716 30.0152 91.8831 30.0152C91.5472 30.0152 91.2344 30.0646 90.9447 30.1633C90.6549 30.2555 90.3882 30.3839 90.1446 30.5486C89.947 30.6934 89.7626 30.8614 89.5914 31.0523C89.4268 31.2433 89.2819 31.454 89.1568 31.6845V39.3498H87.3294Z" fill="black"/>
<path d="M104.201 39.5473C103.45 39.5473 102.759 39.4189 102.126 39.1621C101.501 38.9053 100.964 38.5464 100.516 38.0854C100.069 37.6244 99.7195 37.0778 99.4693 36.4457C99.219 35.8135 99.0939 35.1253 99.0939 34.3812V33.9663C99.0939 33.1036 99.2322 32.3332 99.5088 31.6549C99.7854 30.97 100.154 30.3905 100.615 29.9164C101.069 29.4488 101.586 29.0899 102.166 28.8397C102.752 28.5895 103.351 28.4643 103.964 28.4643C104.734 28.4643 105.406 28.5993 105.979 28.8693C106.558 29.1327 107.039 29.4982 107.421 29.9658C107.803 30.4399 108.086 30.9964 108.27 31.6351C108.461 32.2739 108.557 32.9654 108.557 33.7095V34.5294H100.921V34.5985C100.967 35.1187 101.069 35.5764 101.228 35.9715C101.392 36.3666 101.616 36.7157 101.899 37.0186C102.189 37.3413 102.538 37.5948 102.946 37.7792C103.355 37.9636 103.806 38.0558 104.3 38.0558C104.952 38.0558 105.531 37.9241 106.038 37.6606C106.545 37.3972 106.967 37.0482 107.302 36.6136L108.419 37.4828C108.063 38.0228 107.53 38.5036 106.818 38.925C106.114 39.3399 105.241 39.5473 104.201 39.5473ZM103.964 29.9658C103.595 29.9658 103.246 30.0349 102.917 30.1732C102.587 30.3049 102.291 30.4992 102.028 30.756C101.764 31.0194 101.54 31.3421 101.356 31.724C101.178 32.0994 101.053 32.534 100.981 33.0279H106.73V32.939C106.73 32.6098 106.667 32.2574 106.542 31.8821C106.417 31.5001 106.242 31.1709 106.018 30.8943C105.794 30.6177 105.511 30.3938 105.169 30.2226C104.833 30.0514 104.431 29.9658 103.964 29.9658Z" fill="black"/>
<path d="M118.632 28.4643C118.968 28.4643 119.317 28.4874 119.679 28.5335C120.048 28.5796 120.325 28.6421 120.509 28.7212L120.262 30.5091C119.907 30.43 119.567 30.3741 119.245 30.3411C118.929 30.3016 118.596 30.2819 118.247 30.2819C117.799 30.2819 117.394 30.3378 117.032 30.4498C116.67 30.5552 116.354 30.7132 116.084 30.9239C115.84 31.1083 115.626 31.3355 115.442 31.6055C115.264 31.8689 115.116 32.1652 114.997 32.4945V39.3498H113.16V28.6619H114.899L114.978 30.0942L114.987 30.3609C115.422 29.7748 115.942 29.3138 116.548 28.978C117.161 28.6356 117.855 28.4643 118.632 28.4643Z" fill="black"/>
<path d="M93.2233 10.1949H87.5336V12.0156H93.2233V10.1949Z" fill="black"/>
<path d="M97.0164 4.73291V3.82256H96.0681V2.91222H95.1198V2.00187H94.1716V1.09153H93.2233V0.181183H83.7405V1.09153H82.7922V17.4777H83.7405V18.3881H97.0164V17.4777H97.9647V4.73291H97.0164ZM96.0681 15.6571H95.1198V16.5674H85.6371V15.6571H84.6888V2.91222H85.6371V2.00187H90.3784V7.46394H96.0681V15.6571ZM94.1716 4.73291V5.64325H92.275V3.82256H93.2233V4.73291H94.1716Z" fill="black"/>
</svg>
