<svg width="120" height="40" viewBox="0 0 120 40" fill="none" xmlns="http://www.w3.org/2000/svg">
<rect x="31.7083" y="33.3793" width="6.06897" height="6.06897" fill="white"/>
<rect x="25.6393" y="27.3104" width="6.06897" height="6.06897" fill="white"/>
<rect x="19.5704" y="33.3793" width="6.06897" height="6.06897" fill="white"/>
<rect x="13.5014" y="27.3104" width="6.06897" height="6.06897" fill="white"/>
<rect x="19.5704" y="21.2414" width="6.06897" height="6.06897" fill="white"/>
<rect x="7.43246" y="33.3793" width="6.06897" height="6.06897" fill="white"/>
<rect x="7.43246" y="21.2414" width="6.06897" height="6.06897" fill="white"/>
<path d="M110.552 18.4606L111.094 17.4417L108.168 18.3371C108.142 18.345 107.984 18.3153 107.693 18.2479C107.523 18.1576 107.43 18.0154 107.414 17.8213C107.398 17.6272 107.472 17.4764 107.637 17.369L109.056 16.3589L109.597 15.34C109.309 15.1866 109.119 14.9603 109.028 14.661C108.937 14.3618 108.967 14.068 109.12 13.7796C109.272 13.4913 109.499 13.3014 109.799 13.2101C110.099 13.1188 110.393 13.1494 110.68 13.3021L115.775 16.0092C116.064 16.1626 116.254 16.3891 116.345 16.6886C116.437 16.9882 116.406 17.2818 116.252 17.5695L115.833 18.3592C115.788 18.4441 115.741 18.5119 115.692 18.5627C115.643 18.6134 115.579 18.6719 115.501 18.7381L113.609 20.0849L110.552 18.4606ZM103.019 29.0805C99.4785 29.4655 98.918 32.9287 98.7311 32.318C98.5442 31.7074 98.5995 31.1214 98.897 30.56L101.563 25.5417C101.654 25.3719 101.759 25.2155 101.878 25.0726C101.998 24.9297 102.141 24.804 102.307 24.6956L108.843 20.2636C109.21 20.0232 109.603 19.8888 110.022 19.8602C110.44 19.8317 110.844 19.9214 111.234 20.1292L113.068 21.1038C113.356 21.2572 113.547 21.4837 113.638 21.7833C113.73 22.0828 113.699 22.3765 113.545 22.6641L107.318 34.6437L106.812 33.6322C106.559 32.6207 106.559 32.6207 106.306 32.115C106.053 31.6092 106.053 31.6092 105.547 31.1035L103.019 29.0805Z" fill="white"/>
<path d="M10.4872 7.84922C10.5735 8.19447 10.6166 8.62604 10.6166 9.14393C10.6166 9.64024 10.5735 10.0718 10.4872 10.4386C10.5735 10.7839 10.6166 11.2155 10.6166 11.7334C10.6166 12.2297 10.5735 12.6612 10.4872 13.0281H9.19246C9.27878 13.3733 9.32194 13.8049 9.32194 14.3228C9.32194 14.8191 9.27878 15.2507 9.19246 15.6175H7.89775C7.98407 15.9628 8.02722 16.3943 8.02722 16.9122C8.02722 17.4085 7.98407 17.8401 7.89775 18.2069H0.129471C0.0431571 17.8401 0 17.4085 0 16.9122C0 16.3943 0.0431571 15.9628 0.129471 15.6175C0.0431571 15.2507 0 14.8191 0 14.3228C0 13.8049 0.0431571 13.3733 0.129471 13.0281C0.0431571 12.6612 0 12.2297 0 11.7334C0 11.2155 0.0431571 10.7839 0.129471 10.4386C0.0431571 10.0718 0 9.64024 0 9.14393C0 8.62604 0.0431571 8.19447 0.129471 7.84922C0.0431571 7.48238 0 7.05081 0 6.5545C0 6.03662 0.0431571 5.60505 0.129471 5.25979C0.0431571 4.89295 0 4.46138 0 3.96508C0 3.44719 0.0431571 3.01562 0.129471 2.67036C0.0431571 2.30353 0 1.87196 0 1.37565C0 0.857764 0.0431571 0.426193 0.129471 0.0809369H7.89775C7.98407 0.426193 8.02722 0.857764 8.02722 1.37565C8.02722 1.87196 7.98407 2.30353 7.89775 2.67036H9.19246C9.27878 3.01562 9.32194 3.44719 9.32194 3.96508C9.32194 4.46138 9.27878 4.89295 9.19246 5.25979H10.4872C10.5735 5.60505 10.6166 6.03662 10.6166 6.5545C10.6166 7.05081 10.5735 7.48238 10.4872 7.84922ZM7.89775 13.0281C7.81144 12.6612 7.76828 12.2297 7.76828 11.7334C7.76828 11.2155 7.81144 10.7839 7.89775 10.4386C7.81144 10.0718 7.76828 9.64024 7.76828 9.14393C7.76828 8.62604 7.81144 8.19447 7.89775 7.84922C7.81144 7.48238 7.76828 7.05081 7.76828 6.5545C7.76828 6.03662 7.81144 5.60505 7.89775 5.25979H6.60304C6.51672 4.89295 6.47357 4.46138 6.47357 3.96508C6.47357 3.44719 6.51672 3.01562 6.60304 2.67036H2.7189C2.80521 3.01562 2.84837 3.44719 2.84837 3.96508C2.84837 4.46138 2.80521 4.89295 2.7189 5.25979C2.80521 5.60505 2.84837 6.03662 2.84837 6.5545C2.84837 7.05081 2.80521 7.48238 2.7189 7.84922C2.80521 8.19447 2.84837 8.62604 2.84837 9.14393C2.84837 9.64024 2.80521 10.0718 2.7189 10.4386C2.80521 10.7839 2.84837 11.2155 2.84837 11.7334C2.84837 12.2297 2.80521 12.6612 2.7189 13.0281C2.80521 13.3733 2.84837 13.8049 2.84837 14.3228C2.84837 14.8191 2.80521 15.2507 2.7189 15.6175H6.60304C6.51672 15.2507 6.47357 14.8191 6.47357 14.3228C6.47357 13.8049 6.51672 13.3733 6.60304 13.0281H7.89775Z" fill="white"/>
<path d="M16.9734 2.67036C16.8871 2.30353 16.8439 1.87196 16.8439 1.37565C16.8439 0.857764 16.8871 0.426193 16.9734 0.0809369H19.5628C19.6491 0.426193 19.6923 0.857764 19.6923 1.37565C19.6923 1.87196 19.6491 2.30353 19.5628 2.67036H16.9734ZM22.1522 15.6175C22.2386 15.9628 22.2817 16.3943 22.2817 16.9122C22.2817 17.4085 22.2386 17.8401 22.1522 18.2069H14.384C14.2976 17.8401 14.2545 17.4085 14.2545 16.9122C14.2545 16.3943 14.2976 15.9628 14.384 15.6175H16.9734C16.8871 15.2507 16.8439 14.8191 16.8439 14.3228C16.8439 13.8049 16.8871 13.3733 16.9734 13.0281C16.8871 12.6612 16.8439 12.2297 16.8439 11.7334C16.8439 11.2155 16.8871 10.7839 16.9734 10.4386C16.8871 10.0718 16.8439 9.64024 16.8439 9.14393C16.8439 8.62604 16.8871 8.19447 16.9734 7.84922H15.0313C14.945 7.48238 14.9018 7.05081 14.9018 6.5545C14.9018 6.03662 14.945 5.60505 15.0313 5.25979H19.5628C19.6491 5.60505 19.6923 6.03662 19.6923 6.5545C19.6923 7.05081 19.6491 7.48238 19.5628 7.84922C19.6491 8.19447 19.6923 8.62604 19.6923 9.14393C19.6923 9.64024 19.6491 10.0718 19.5628 10.4386C19.6491 10.7839 19.6923 11.2155 19.6923 11.7334C19.6923 12.2297 19.6491 12.6612 19.5628 13.0281C19.6491 13.3733 19.6923 13.8049 19.6923 14.3228C19.6923 14.8191 19.6491 15.2507 19.5628 15.6175H22.1522Z" fill="white"/>
<path d="M36.4067 7.84922C36.493 8.19447 36.5362 8.62604 36.5362 9.14393C36.5362 9.64024 36.493 10.0718 36.4067 10.4386C36.493 10.7839 36.5362 11.2155 36.5362 11.7334C36.5362 12.2297 36.493 12.6612 36.4067 13.0281C36.493 13.3733 36.5362 13.8049 36.5362 14.3228C36.5362 14.8191 36.493 15.2507 36.4067 15.6175C36.493 15.9628 36.5362 16.3943 36.5362 16.9122C36.5362 17.4085 36.493 17.8401 36.4067 18.2069H35.112C35.1983 18.5522 35.2415 18.9837 35.2415 19.5016C35.2415 19.9979 35.1983 20.4295 35.112 20.7963H33.8173C33.9036 21.1416 33.9468 21.5732 33.9468 22.0911C33.9468 22.5874 33.9036 23.0189 33.8173 23.3858H28.6385C28.5521 23.0189 28.509 22.5874 28.509 22.0911C28.509 21.5732 28.5521 21.1416 28.6385 20.7963H32.5226C32.4363 20.4295 32.3931 19.9979 32.3931 19.5016C32.3931 18.9837 32.4363 18.5522 32.5226 18.2069H33.8173C33.731 17.8401 33.6878 17.4085 33.6878 16.9122C33.6878 16.3943 33.731 15.9628 33.8173 15.6175H32.5226C32.4363 15.2507 32.3931 14.8191 32.3931 14.3228C32.3931 13.8049 32.4363 13.3733 32.5226 13.0281H33.8173C33.731 12.6612 33.6878 12.2297 33.6878 11.7334C33.6878 11.2155 33.731 10.7839 33.8173 10.4386C33.731 10.0718 33.6878 9.64024 33.6878 9.14393C33.6878 8.62604 33.731 8.19447 33.8173 7.84922H29.6095C29.6958 8.19447 29.739 8.62604 29.739 9.14393C29.739 9.64024 29.6958 10.0718 29.6095 10.4386H28.6385C28.7248 10.7839 28.7679 11.2155 28.7679 11.7334C28.7679 12.2297 28.7248 12.6612 28.6385 13.0281H29.6095C29.6958 13.3733 29.739 13.8049 29.739 14.3228C29.739 14.8191 29.6958 15.2507 29.6095 15.6175H32.5226C32.6089 15.9628 32.6521 16.3943 32.6521 16.9122C32.6521 17.4085 32.6089 17.8401 32.5226 18.2069H28.6385C28.5521 17.8401 28.509 17.4085 28.509 16.9122C28.509 16.3943 28.5521 15.9628 28.6385 15.6175H27.0201C26.9337 15.2507 26.8906 14.8191 26.8906 14.3228C26.8906 13.8049 26.9337 13.3733 27.0201 13.0281H26.049C25.9627 12.6612 25.9196 12.2297 25.9196 11.7334C25.9196 11.2155 25.9627 10.7839 26.049 10.4386H27.0201C26.9337 10.0718 26.8906 9.64024 26.8906 9.14393C26.8906 8.62604 26.9337 8.19447 27.0201 7.84922H28.6385C28.5521 7.48238 28.509 7.05081 28.509 6.5545C28.509 6.03662 28.5521 5.60505 28.6385 5.25979H36.4067C36.493 5.60505 36.5362 6.03662 36.5362 6.5545C36.5362 7.05081 36.493 7.48238 36.4067 7.84922Z" fill="white"/>
<path d="M42.8929 2.67036C42.8066 2.30353 42.7635 1.87196 42.7635 1.37565C42.7635 0.857764 42.8066 0.426193 42.8929 0.0809369H45.4824C45.5687 0.426193 45.6118 0.857764 45.6118 1.37565C45.6118 1.87196 45.5687 2.30353 45.4824 2.67036H42.8929ZM48.0718 15.6175C48.1581 15.9628 48.2013 16.3943 48.2013 16.9122C48.2013 17.4085 48.1581 17.8401 48.0718 18.2069H40.3035C40.2172 17.8401 40.174 17.4085 40.174 16.9122C40.174 16.3943 40.2172 15.9628 40.3035 15.6175H42.8929C42.8066 15.2507 42.7635 14.8191 42.7635 14.3228C42.7635 13.8049 42.8066 13.3733 42.8929 13.0281C42.8066 12.6612 42.7635 12.2297 42.7635 11.7334C42.7635 11.2155 42.8066 10.7839 42.8929 10.4386C42.8066 10.0718 42.7635 9.64024 42.7635 9.14393C42.7635 8.62604 42.8066 8.19447 42.8929 7.84922H40.9509C40.8646 7.48238 40.8214 7.05081 40.8214 6.5545C40.8214 6.03662 40.8646 5.60505 40.9509 5.25979H45.4824C45.5687 5.60505 45.6118 6.03662 45.6118 6.5545C45.6118 7.05081 45.5687 7.48238 45.4824 7.84922C45.5687 8.19447 45.6118 8.62604 45.6118 9.14393C45.6118 9.64024 45.5687 10.0718 45.4824 10.4386C45.5687 10.7839 45.6118 11.2155 45.6118 11.7334C45.6118 12.2297 45.5687 12.6612 45.4824 13.0281C45.5687 13.3733 45.6118 13.8049 45.6118 14.3228C45.6118 14.8191 45.5687 15.2507 45.4824 15.6175H48.0718Z" fill="white"/>
<path d="M61.0316 15.6175C61.1179 15.9628 61.161 16.3943 61.161 16.9122C61.161 17.4085 61.1179 17.8401 61.0316 18.2069H55.8527C55.7664 17.8401 55.7232 17.4085 55.7232 16.9122C55.7232 16.3943 55.7664 15.9628 55.8527 15.6175H54.558C54.4717 15.2507 54.4285 14.8191 54.4285 14.3228C54.4285 13.8049 54.4717 13.3733 54.558 13.0281C54.4717 12.6612 54.4285 12.2297 54.4285 11.7334C54.4285 11.2155 54.4717 10.7839 54.558 10.4386C54.4717 10.0718 54.4285 9.64024 54.4285 9.14393C54.4285 8.62604 54.4717 8.19447 54.558 7.84922H51.9686C51.8823 7.48238 51.8391 7.05081 51.8391 6.5545C51.8391 6.03662 51.8823 5.60505 51.9686 5.25979H54.558C54.4717 4.89295 54.4285 4.46138 54.4285 3.96508C54.4285 3.44719 54.4717 3.01562 54.558 2.67036C54.4717 2.30353 54.4285 1.87196 54.4285 1.37565C54.4285 0.857764 54.4717 0.426193 54.558 0.0809369H57.1474C57.2337 0.426193 57.2769 0.857764 57.2769 1.37565C57.2769 1.87196 57.2337 2.30353 57.1474 2.67036C57.2337 3.01562 57.2769 3.44719 57.2769 3.96508C57.2769 4.46138 57.2337 4.89295 57.1474 5.25979H61.0316C61.1179 5.60505 61.161 6.03662 61.161 6.5545C61.161 7.05081 61.1179 7.48238 61.0316 7.84922H57.1474C57.2337 8.19447 57.2769 8.62604 57.2769 9.14393C57.2769 9.64024 57.2337 10.0718 57.1474 10.4386C57.2337 10.7839 57.2769 11.2155 57.2769 11.7334C57.2769 12.2297 57.2337 12.6612 57.1474 13.0281C57.2337 13.3733 57.2769 13.8049 57.2769 14.3228C57.2769 14.8191 57.2337 15.2507 57.1474 15.6175H61.0316Z" fill="white"/>
<path d="M75.2861 15.6175C75.3724 15.9628 75.4155 16.3943 75.4155 16.9122C75.4155 17.4085 75.3724 17.8401 75.2861 18.2069H72.6966C72.6103 17.8401 72.5672 17.4085 72.5672 16.9122C72.5672 16.3943 72.6103 15.9628 72.6966 15.6175H71.4019C71.3156 15.2507 71.2725 14.8191 71.2725 14.3228C71.2725 13.8049 71.3156 13.3733 71.4019 13.0281H67.5178C67.6041 13.3733 67.6473 13.8049 67.6473 14.3228C67.6473 14.8191 67.6041 15.2507 67.5178 15.6175H71.4019C71.4882 15.9628 71.5314 16.3943 71.5314 16.9122C71.5314 17.4085 71.4882 17.8401 71.4019 18.2069H66.2231C66.1368 17.8401 66.0936 17.4085 66.0936 16.9122C66.0936 16.3943 66.1368 15.9628 66.2231 15.6175H64.9284C64.842 15.2507 64.7989 14.8191 64.7989 14.3228C64.7989 13.8049 64.842 13.3733 64.9284 13.0281H66.2231C66.1368 12.6612 66.0936 12.2297 66.0936 11.7334C66.0936 11.2155 66.1368 10.7839 66.2231 10.4386H71.4019C71.3156 10.0718 71.2725 9.64024 71.2725 9.14393C71.2725 8.62604 71.3156 8.19447 71.4019 7.84922H66.8704C66.7841 7.48238 66.741 7.05081 66.741 6.5545C66.741 6.03662 66.7841 5.60505 66.8704 5.25979H72.6966C72.7829 5.60505 72.8261 6.03662 72.8261 6.5545C72.8261 7.05081 72.7829 7.48238 72.6966 7.84922H73.9913C74.0777 8.19447 74.1208 8.62604 74.1208 9.14393C74.1208 9.64024 74.0777 10.0718 73.9913 10.4386C74.0777 10.7839 74.1208 11.2155 74.1208 11.7334C74.1208 12.2297 74.0777 12.6612 73.9913 13.0281C74.0777 13.3733 74.1208 13.8049 74.1208 14.3228C74.1208 14.8191 74.0777 15.2507 73.9913 15.6175H75.2861Z" fill="white"/>
<path d="M86.9511 15.4253C87.0374 15.7706 87.0806 16.3943 87.0806 16.9122C87.0806 17.4085 87.0374 17.8401 86.9511 18.2069H79.1828C79.0965 17.8401 79.0534 17.4085 79.0534 16.9122C79.0534 16.3943 79.0965 15.9628 79.1828 15.6175H81.7723C81.686 15.2507 81.6428 14.8191 81.6428 14.3228C81.6428 13.8049 81.686 13.3733 81.7723 13.0281C81.686 12.6612 81.6428 12.2297 81.6428 11.7334C81.6428 11.2155 81.686 10.7839 81.7723 10.4386C81.686 10.0718 81.6428 9.64024 81.6428 9.14393C81.6428 8.62604 81.686 8.19447 81.7723 7.84922C81.686 7.48238 81.6428 7.05081 81.6428 6.5545C81.6428 6.03662 81.686 5.60505 81.7723 5.25979C81.686 4.89295 81.6428 4.46138 81.6428 3.96508C81.6428 3.44719 81.686 3.01562 81.7723 2.67036H79.8302C79.7439 2.30353 79.7007 1.87196 79.7007 1.37565C79.7007 0.857764 79.8734 0.345256 79.9597 0H84.4912C84.5775 0.345256 84.4912 0.857764 84.4912 1.37565C84.4912 1.87196 84.448 2.30353 84.3617 2.67036C84.448 3.01562 84.4912 3.44719 84.4912 3.96508C84.4912 4.46138 84.448 4.89295 84.3617 5.25979C84.448 5.60505 84.4912 6.03662 84.4912 6.5545C84.4912 7.05081 84.448 7.48238 84.3617 7.84922C84.448 8.19447 84.4912 8.62604 84.4912 9.14393C84.4912 9.64024 84.448 10.0718 84.3617 10.4386C84.448 10.7839 84.4912 11.2155 84.4912 11.7334C84.4912 12.2297 84.448 12.6612 84.3617 13.0281C84.448 13.3733 84.4912 13.8049 84.4912 14.3228C84.4912 14.8191 84.448 15.0585 84.3617 15.4253H86.9511Z" fill="white"/>
<path d="M47.5359 34.8421C47.4503 35.5072 47.2791 36.1196 47.0222 36.6793C46.7654 37.2325 46.4329 37.7066 46.0246 38.1018C45.6097 38.5035 45.1191 38.8163 44.5528 39.0402C43.993 39.2575 43.3674 39.3661 42.676 39.3661C42.0833 39.3661 41.5433 39.2838 41.056 39.1192C40.5753 38.948 40.1472 38.7142 39.7719 38.4179C39.3899 38.1215 39.0607 37.7725 38.7841 37.3708C38.5141 36.9691 38.2902 36.5312 38.1124 36.057C37.928 35.5829 37.7897 35.0857 37.6975 34.5655C37.6119 34.0452 37.5658 33.5184 37.5592 32.985V30.9798C37.5658 30.4464 37.6119 29.9196 37.6975 29.3994C37.7897 28.8791 37.928 28.3819 38.1124 27.9078C38.2902 27.4337 38.5141 26.9957 38.7841 26.594C39.0607 26.1858 39.3899 25.8334 39.7719 25.5371C40.1472 25.2408 40.5753 25.0103 41.056 24.8457C41.5367 24.6744 42.0767 24.5888 42.676 24.5888C43.3938 24.5888 44.0358 24.7008 44.6022 24.9247C45.1685 25.142 45.6558 25.4515 46.0641 25.8532C46.4724 26.2615 46.7983 26.7488 47.042 27.3151C47.2922 27.8815 47.4569 28.5071 47.5359 29.1919H45.7085C45.6492 28.7573 45.5471 28.3523 45.4023 27.9769C45.2574 27.6016 45.0631 27.2723 44.8195 26.9892C44.5758 26.706 44.2762 26.4854 43.9206 26.3273C43.5716 26.1627 43.1567 26.0804 42.676 26.0804C42.2413 26.0804 41.8561 26.1528 41.5203 26.2977C41.191 26.436 40.9078 26.627 40.6708 26.8706C40.4271 27.1143 40.223 27.3974 40.0583 27.7201C39.9003 28.0428 39.7719 28.3852 39.6731 28.7474C39.5743 29.1096 39.5019 29.4817 39.4558 29.8636C39.4163 30.239 39.3965 30.6045 39.3965 30.9601V32.985C39.3965 33.3406 39.4163 33.7094 39.4558 34.0913C39.5019 34.4667 39.5743 34.8355 39.6731 35.1977C39.7719 35.5664 39.9003 35.9122 40.0583 36.2348C40.2164 36.5575 40.4172 36.8407 40.6609 37.0843C40.9045 37.3346 41.191 37.5321 41.5203 37.677C41.8495 37.8153 42.2348 37.8845 42.676 37.8845C43.1567 37.8845 43.5716 37.8087 43.9206 37.6573C44.2762 37.5058 44.5758 37.2918 44.8195 37.0152C45.0631 36.7452 45.2574 36.4258 45.4023 36.057C45.5471 35.6817 45.6492 35.2767 45.7085 34.8421H47.5359Z" fill="white"/>
<path d="M50.6573 23.9962H56.1198V37.5881H59.6067V39.1686H50.6573V37.5881H54.2924V25.5865H50.6573V23.9962Z" fill="white"/>
<path d="M67.2423 39.3661C66.4915 39.3661 65.8001 39.2377 65.1679 38.9809C64.5423 38.7241 64.0056 38.3652 63.5578 37.9042C63.11 37.4432 62.761 36.8967 62.5108 36.2645C62.2605 35.6323 62.1354 34.9441 62.1354 34.2V33.7851C62.1354 32.9225 62.2737 32.152 62.5503 31.4737C62.8268 30.7888 63.1956 30.2093 63.6566 29.7352C64.111 29.2676 64.6279 28.9088 65.2074 28.6585C65.7935 28.4083 66.3928 28.2832 67.0052 28.2832C67.7757 28.2832 68.4474 28.4182 69.0203 28.6881C69.5998 28.9516 70.0805 29.317 70.4624 29.7846C70.8444 30.2587 71.1276 30.8152 71.3119 31.454C71.5029 32.0927 71.5984 32.7842 71.5984 33.5283V34.3482H63.9628V34.4173C64.0089 34.9376 64.111 35.3952 64.269 35.7903C64.4336 36.1855 64.6575 36.5345 64.9407 36.8374C65.2305 37.1601 65.5795 37.4136 65.9878 37.598C66.3961 37.7824 66.8471 37.8746 67.341 37.8746C67.993 37.8746 68.5725 37.7429 69.0795 37.4795C69.5866 37.216 70.0081 36.867 70.3439 36.4324L71.4601 37.3017C71.1045 37.8416 70.5711 38.3224 69.8599 38.7438C69.1553 39.1587 68.2827 39.3661 67.2423 39.3661ZM67.0052 29.7846C66.6364 29.7846 66.2874 29.8537 65.9581 29.992C65.6289 30.1237 65.3325 30.318 65.0691 30.5748C64.8057 30.8382 64.5818 31.1609 64.3974 31.5429C64.2196 31.9182 64.0945 32.3528 64.0221 32.8467H69.771V32.7578C69.771 32.4286 69.7084 32.0763 69.5833 31.7009C69.4582 31.319 69.2837 30.9897 69.0598 30.7131C68.8359 30.4365 68.5527 30.2126 68.2103 30.0414C67.8744 29.8702 67.4727 29.7846 67.0052 29.7846Z" fill="white"/>
<path d="M81.6936 39.1686C81.6212 39.0303 81.5619 38.8591 81.5158 38.6549C81.4763 38.4442 81.4466 38.2269 81.4269 38.003C81.2425 38.1874 81.0351 38.3619 80.8046 38.5265C80.5807 38.6911 80.3337 38.836 80.0637 38.9611C79.7872 39.0863 79.4941 39.185 79.1846 39.2575C78.8751 39.3299 78.5458 39.3661 78.1968 39.3661C77.6305 39.3661 77.1168 39.2838 76.6559 39.1192C76.2015 38.9546 75.8163 38.7307 75.5002 38.4475C75.1775 38.1709 74.9272 37.8416 74.7494 37.4597C74.5782 37.0712 74.4926 36.653 74.4926 36.2052C74.4926 35.6191 74.6079 35.1055 74.8383 34.6643C75.0754 34.2231 75.408 33.8543 75.836 33.5579C76.2641 33.2682 76.7777 33.0509 77.377 32.906C77.9828 32.7611 78.6578 32.6887 79.4019 32.6887H81.3973V31.8491C81.3973 31.5264 81.338 31.2366 81.2195 30.9798C81.1009 30.723 80.933 30.5024 80.7157 30.318C80.4984 30.1402 80.2317 30.0019 79.9156 29.9031C79.6061 29.8043 79.2571 29.755 78.8685 29.755C78.5063 29.755 78.1804 29.8011 77.8906 29.8932C77.6074 29.9854 77.3671 30.1073 77.1695 30.2587C76.972 30.4102 76.8172 30.5913 76.7053 30.802C76.5999 31.0062 76.5472 31.2202 76.5472 31.4441H74.7099C74.7165 31.0555 74.8153 30.6736 75.0063 30.2982C75.2038 29.9229 75.487 29.5837 75.8558 29.2808C76.218 28.9845 76.6592 28.7441 77.1794 28.5597C77.7062 28.3753 78.3022 28.2832 78.9673 28.2832C79.5731 28.2832 80.1362 28.3589 80.6564 28.5103C81.1767 28.6552 81.6277 28.8758 82.0097 29.1722C82.385 29.4751 82.6814 29.8504 82.8987 30.2982C83.116 30.746 83.2247 31.2696 83.2247 31.8688V36.8374C83.2247 37.193 83.2576 37.5717 83.3234 37.9734C83.3893 38.3685 83.4815 38.7142 83.6 39.0105V39.1686H81.6936ZM78.4635 37.7758C78.8191 37.7758 79.1517 37.7297 79.4612 37.6375C79.7707 37.5453 80.0539 37.4235 80.3107 37.272C80.5609 37.1206 80.7782 36.9493 80.9626 36.7584C81.147 36.5608 81.2919 36.3567 81.3973 36.1459V33.9827H79.6983C79.0661 33.9827 78.5129 34.0387 78.0388 34.1506C77.5712 34.256 77.1992 34.4206 76.9226 34.6445C76.725 34.8026 76.5736 34.9902 76.4682 35.2075C76.3694 35.4249 76.32 35.6718 76.32 35.9484C76.32 36.2118 76.3628 36.4555 76.4484 36.6793C76.5406 36.9032 76.6756 37.0942 76.8534 37.2523C77.0312 37.4169 77.2551 37.5453 77.5251 37.6375C77.7951 37.7297 78.1079 37.7758 78.4635 37.7758Z" fill="white"/>
<path d="M86.8202 39.1686V28.4807H88.4599L88.5884 30.0612C88.7464 29.8373 88.9176 29.6331 89.102 29.4487C89.293 29.2578 89.4938 29.0931 89.7046 28.9548C90.0206 28.7441 90.3631 28.5828 90.7319 28.4708C91.1072 28.3523 91.5023 28.2897 91.9172 28.2832C92.4769 28.2832 92.984 28.3622 93.4384 28.5202C93.8994 28.6783 94.2912 28.9252 94.6139 29.2611C94.9365 29.5969 95.1835 30.025 95.3547 30.5452C95.5325 31.0588 95.6214 31.6713 95.6214 32.3825V39.1686H93.794V32.422C93.794 31.9478 93.7413 31.5461 93.636 31.2169C93.5306 30.8876 93.3758 30.6209 93.1717 30.4168C92.961 30.2126 92.7041 30.0645 92.4012 29.9723C92.1049 29.8801 91.7624 29.834 91.3739 29.834C91.0381 29.834 90.7253 29.8834 90.4355 29.9821C90.1458 30.0743 89.8791 30.2028 89.6354 30.3674C89.4379 30.5123 89.2535 30.6802 89.0822 30.8712C88.9176 31.0621 88.7727 31.2729 88.6476 31.5033V39.1686H86.8202Z" fill="white"/>
<path d="M103.692 39.3661C102.941 39.3661 102.249 39.2377 101.617 38.9809C100.992 38.7241 100.455 38.3652 100.007 37.9042C99.5594 37.4432 99.2104 36.8967 98.9601 36.2645C98.7099 35.6323 98.5848 34.9441 98.5848 34.2V33.7851C98.5848 32.9225 98.7231 32.152 98.9996 31.4737C99.2762 30.7888 99.645 30.2093 100.106 29.7352C100.56 29.2676 101.077 28.9088 101.657 28.6585C102.243 28.4083 102.842 28.2832 103.455 28.2832C104.225 28.2832 104.897 28.4182 105.47 28.6881C106.049 28.9516 106.53 29.317 106.912 29.7846C107.294 30.2587 107.577 30.8152 107.761 31.454C107.952 32.0927 108.048 32.7842 108.048 33.5283V34.3482H100.412V34.4173C100.458 34.9376 100.56 35.3952 100.718 35.7903C100.883 36.1855 101.107 36.5345 101.39 36.8374C101.68 37.1601 102.029 37.4136 102.437 37.598C102.845 37.7824 103.297 37.8746 103.79 37.8746C104.442 37.8746 105.022 37.7429 105.529 37.4795C106.036 37.216 106.457 36.867 106.793 36.4324L107.909 37.3017C107.554 37.8416 107.02 38.3224 106.309 38.7438C105.605 39.1587 104.732 39.3661 103.692 39.3661ZM103.455 29.7846C103.086 29.7846 102.737 29.8537 102.408 29.992C102.078 30.1237 101.782 30.318 101.518 30.5748C101.255 30.8382 101.031 31.1609 100.847 31.5429C100.669 31.9182 100.544 32.3528 100.471 32.8467H106.22V32.7578C106.22 32.4286 106.158 32.0763 106.033 31.7009C105.908 31.319 105.733 30.9897 105.509 30.7131C105.285 30.4365 105.002 30.2126 104.66 30.0414C104.324 29.8702 103.922 29.7846 103.455 29.7846Z" fill="white"/>
<path d="M118.123 28.2832C118.459 28.2832 118.808 28.3062 119.17 28.3523C119.539 28.3984 119.816 28.461 120 28.54L119.753 30.3279C119.397 30.2489 119.058 30.1929 118.736 30.16C118.42 30.1204 118.087 30.1007 117.738 30.1007C117.29 30.1007 116.885 30.1567 116.523 30.2686C116.161 30.374 115.845 30.532 115.575 30.7427C115.331 30.9271 115.117 31.1543 114.933 31.4243C114.755 31.6877 114.607 31.9841 114.488 32.3133V39.1686H112.651V28.4807H114.389L114.468 29.913L114.478 30.1797C114.913 29.5936 115.433 29.1327 116.039 28.7968C116.651 28.4544 117.346 28.2832 118.123 28.2832Z" fill="white"/>
<path d="M92.7141 10.0137H87.0245V11.8344H92.7141V10.0137Z" fill="white"/>
<path d="M96.5072 4.55173V3.64138H95.5589V2.73104H94.6107V1.82069H93.6624V0.910345H92.7141V0H83.2314V0.910345H82.2831V17.2966H83.2314V18.2069H96.5072V17.2966H97.4555V4.55173H96.5072ZM95.5589 15.4759H94.6107V16.3862H85.1279V15.4759H84.1796V2.73104H85.1279V1.82069H89.8693V7.28276H95.5589V15.4759ZM93.6624 4.55173V5.46207H91.7658V3.64138H92.7141V4.55173H93.6624Z" fill="white"/>
</svg>
